<?xml version="1.0" encoding="UTF-8"?>
<!DOCTYPE svg PUBLIC "-//W3C//DTD SVG 1.1//EN" "http://www.w3.org/Graphics/SVG/1.1/DTD/svg11.dtd">
<svg xmlns="http://www.w3.org/2000/svg" version="1.1" width="180px" height="180px" style="shape-rendering:geometricPrecision; text-rendering:geometricPrecision; image-rendering:optimizeQuality; fill-rule:evenodd; clip-rule:evenodd" xmlns:xlink="http://www.w3.org/1999/xlink">
<g><path style="opacity:1" fill="#fdfdfd" d="M -0.5,-0.5 C 59.5,-0.5 119.5,-0.5 179.5,-0.5C 179.5,59.5 179.5,119.5 179.5,179.5C 119.5,179.5 59.5,179.5 -0.5,179.5C -0.5,119.5 -0.5,59.5 -0.5,-0.5 Z"/></g>
<g><path style="opacity:1" fill="#111111" d="M 120.5,19.5 C 118.411,35.4033 115.911,35.4033 113,19.5C 110.879,23.6389 110.213,27.9723 111,32.5C 110.259,31.3595 109.425,31.3595 108.5,32.5C 107.351,30.0752 106.684,30.0752 106.5,32.5C 105.596,33.209 105.263,34.209 105.5,35.5C 104.5,35.5 103.5,35.5 102.5,35.5C 102.5,34.1667 102.5,32.8333 102.5,31.5C 104.708,23.9196 108.375,17.0862 113.5,11C 115.367,10.2888 116.867,10.7888 118,12.5C 118.384,15.0602 119.217,17.3936 120.5,19.5 Z"/></g>
<g><path style="opacity:1" fill="#7b7b7b" d="M 120.5,19.5 C 121.678,23.4756 123.011,27.4756 124.5,31.5C 122.714,35.7273 123.381,36.7273 126.5,34.5C 127.386,35.325 127.719,36.325 127.5,37.5C 127.12,38.1331 126.787,38.7997 126.5,39.5C 125.808,38.9747 125.308,38.3081 125,37.5C 123.535,38.3685 122.369,37.8685 121.5,36C 121.735,35.1268 122.069,34.2935 122.5,33.5C 121.033,33.277 119.533,32.9437 118,32.5C 117.667,33.5 117.333,34.5 117,35.5C 115.559,34.7402 114.059,34.0736 112.5,33.5C 111.5,33.8333 110.833,34.5 110.5,35.5C 111.833,36.5 113.167,37.5 114.5,38.5C 114.833,37.8333 115.167,37.1667 115.5,36.5C 117.026,36.9943 118.359,37.661 119.5,38.5C 118.849,39.0906 118.182,39.7573 117.5,40.5C 116.549,39.6744 115.549,39.5078 114.5,40C 114.833,40.3333 115.167,40.6667 115.5,41C 113.934,41.765 112.601,41.5983 111.5,40.5C 112.239,40.631 112.906,40.4643 113.5,40C 112.347,38.117 110.681,37.2837 108.5,37.5C 108.608,35.4862 107.942,33.8195 106.5,32.5C 106.684,30.0752 107.351,30.0752 108.5,32.5C 109.425,31.3595 110.259,31.3595 111,32.5C 110.213,27.9723 110.879,23.6389 113,19.5C 115.911,35.4033 118.411,35.4033 120.5,19.5 Z"/></g>
<g><path style="opacity:1" fill="#777777" d="M 102.5,31.5 C 102.5,32.8333 102.5,34.1667 102.5,35.5C 103.5,35.5 104.5,35.5 105.5,35.5C 105.938,35.4346 106.272,35.6012 106.5,36C 105.614,37.6147 104.614,39.1147 103.5,40.5C 102.309,38.6732 100.975,37.0066 99.5,35.5C 100.122,33.8784 101.122,32.5451 102.5,31.5 Z"/></g>
<g><path style="opacity:1" fill="#e6e6e6" d="M 106.5,32.5 C 107.942,33.8195 108.608,35.4862 108.5,37.5C 110.681,37.2837 112.347,38.117 113.5,40C 112.906,40.4643 112.239,40.631 111.5,40.5C 110.833,40.1667 110.167,39.8333 109.5,39.5C 109.44,38.9569 109.107,38.6236 108.5,38.5C 107.995,40.7695 106.662,42.1028 104.5,42.5C 104.672,41.5084 104.338,40.8417 103.5,40.5C 104.614,39.1147 105.614,37.6147 106.5,36C 106.272,35.6012 105.938,35.4346 105.5,35.5C 105.263,34.209 105.596,33.209 106.5,32.5 Z"/></g>
<g><path style="opacity:1" fill="#0f0f0f" d="M 144.5,66.5 C 140.187,68.2713 138.187,71.6046 138.5,76.5C 137.833,76.5 137.167,76.5 136.5,76.5C 134.204,76.1959 133.871,75.1959 135.5,73.5C 135.548,72.4929 134.548,72.1596 132.5,72.5C 132.577,71.2502 133.244,70.4169 134.5,70C 133.483,68.9505 133.316,67.7839 134,66.5C 135,67.8333 136,69.1667 137,70.5C 136.498,67.2813 134.998,64.4479 132.5,62C 133.5,61.6667 134.5,61.3333 135.5,61C 133.482,60.4954 131.482,59.9954 129.5,59.5C 128.147,57.8716 128.481,56.5383 130.5,55.5C 130.369,56.3764 130.702,57.0431 131.5,57.5C 132.95,56.1502 133.617,54.4835 133.5,52.5C 130.477,52.8948 129.477,51.8948 130.5,49.5C 132.516,48.3058 134.516,48.3058 136.5,49.5C 136.825,53.9468 137.658,58.2802 139,62.5C 139.333,62.8333 139.667,63.1667 140,63.5C 140.333,62.5 140.667,61.5 141,60.5C 142.145,61.6843 143.312,61.6843 144.5,60.5C 144.5,61.1667 144.5,61.8333 144.5,62.5C 145.251,63.5735 146.251,63.7401 147.5,63C 149.027,61.9681 150.36,60.8014 151.5,59.5C 152.167,59.5 152.5,59.1667 152.5,58.5C 151.527,56.8506 150.527,55.184 149.5,53.5C 149.158,52.6618 148.492,52.3284 147.5,52.5C 147.698,50.4247 147.865,48.4247 148,46.5C 146.416,47.8613 144.582,48.528 142.5,48.5C 143.11,47.609 143.443,46.609 143.5,45.5C 148.25,43.9705 152.916,42.1372 157.5,40C 160.817,39.5017 164.15,39.335 167.5,39.5C 167.436,45.292 165.436,50.292 161.5,54.5C 158.015,57.484 154.682,60.6507 151.5,64C 149.257,65.1362 146.924,65.9695 144.5,66.5 Z"/></g>
<g><path style="opacity:1" fill="#939393" d="M 130.5,38.5 C 130.369,39.2389 130.536,39.9056 131,40.5C 133.333,40.5 135.667,40.5 138,40.5C 138.677,42.689 139.844,43.0224 141.5,41.5C 142.172,42.9492 142.839,44.2825 143.5,45.5C 143.443,46.609 143.11,47.609 142.5,48.5C 141.448,48.6495 140.448,48.4828 139.5,48C 140.654,47.0862 140.487,46.2529 139,45.5C 138.586,45.9574 138.086,46.2907 137.5,46.5C 136.41,45.273 135.076,44.4396 133.5,44C 133.833,43.6667 134.167,43.3333 134.5,43C 132.349,42.7351 130.682,41.7351 129.5,40C 129.57,39.2352 129.903,38.7352 130.5,38.5 Z"/></g>
<g><path style="opacity:1" fill="#858585" d="M 99.5,37.5 C 99.9687,41.5007 101.969,44.6674 105.5,47C 104.5,47.6667 103.5,47.6667 102.5,47C 101.213,45.5905 100.046,44.0905 99,42.5C 98.5899,43.9007 98.0899,45.234 97.5,46.5C 96.9569,46.44 96.6236,46.1067 96.5,45.5C 97.5224,42.7981 98.5224,40.1314 99.5,37.5 Z"/></g>
<g><path style="opacity:1" fill="#d1d1d1" d="M 127.5,37.5 C 128.791,37.2627 129.791,37.596 130.5,38.5C 129.903,38.7352 129.57,39.2352 129.5,40C 130.682,41.7351 132.349,42.7351 134.5,43C 134.167,43.3333 133.833,43.6667 133.5,44C 135.076,44.4396 136.41,45.273 137.5,46.5C 138.086,46.2907 138.586,45.9574 139,45.5C 140.487,46.2529 140.654,47.0862 139.5,48C 140.448,48.4828 141.448,48.6495 142.5,48.5C 143.609,49.29 144.942,49.79 146.5,50C 145.01,51.772 143.343,51.9387 141.5,50.5C 140.096,52.5471 140.429,54.2138 142.5,55.5C 143.386,54.675 143.719,53.675 143.5,52.5C 145.139,52.9258 146.472,52.9258 147.5,52.5C 148.492,52.3284 149.158,52.6618 149.5,53.5C 148.527,53.9867 147.527,54.4867 146.5,55C 148.605,56.1305 150.605,57.2972 152.5,58.5C 152.5,59.1667 152.167,59.5 151.5,59.5C 149.801,59.3398 148.134,59.5065 146.5,60C 147.167,60.3333 147.833,60.6667 148.5,61C 147.255,61.7914 145.922,62.2914 144.5,62.5C 144.5,61.8333 144.5,61.1667 144.5,60.5C 143.432,59.5655 142.099,59.2322 140.5,59.5C 139.465,56.0063 138.132,52.673 136.5,49.5C 134.797,47.8592 132.63,46.8592 130,46.5C 129.667,46.8333 129.333,47.1667 129,47.5C 128.667,45.5 128.333,43.5 128,41.5C 125.884,41.4291 123.717,41.7624 121.5,42.5C 120.655,41.3285 119.989,39.9952 119.5,38.5C 118.359,37.661 117.026,36.9943 115.5,36.5C 115.167,37.1667 114.833,37.8333 114.5,38.5C 113.167,37.5 111.833,36.5 110.5,35.5C 110.833,34.5 111.5,33.8333 112.5,33.5C 114.059,34.0736 115.559,34.7402 117,35.5C 117.333,34.5 117.667,33.5 118,32.5C 119.533,32.9437 121.033,33.277 122.5,33.5C 122.069,34.2935 121.735,35.1268 121.5,36C 122.369,37.8685 123.535,38.3685 125,37.5C 125.308,38.3081 125.808,38.9747 126.5,39.5C 126.787,38.7997 127.12,38.1331 127.5,37.5 Z"/></g>
<g><path style="opacity:1" fill="#131313" d="M 99.5,35.5 C 100.975,37.0066 102.309,38.6732 103.5,40.5C 104.338,40.8417 104.672,41.5084 104.5,42.5C 105.251,43.5735 106.251,43.7401 107.5,43C 108.085,41.6976 108.751,40.531 109.5,39.5C 110.167,39.8333 110.833,40.1667 111.5,40.5C 112.601,41.5983 113.934,41.765 115.5,41C 115.167,40.6667 114.833,40.3333 114.5,40C 115.549,39.5078 116.549,39.6744 117.5,40.5C 118.182,39.7573 118.849,39.0906 119.5,38.5C 119.989,39.9952 120.655,41.3285 121.5,42.5C 122.209,43.404 123.209,43.7373 124.5,43.5C 124.565,46.4863 123.398,48.8197 121,50.5C 120.768,49.2625 120.268,48.2625 119.5,47.5C 119.217,46.7109 118.717,46.0442 118,45.5C 116.731,46.9047 116.231,48.5714 116.5,50.5C 116.158,51.3382 115.492,51.6716 114.5,51.5C 111.873,50.9084 109.206,50.5751 106.5,50.5C 105.075,49.8639 103.408,49.8639 101.5,50.5C 99.8857,50.1971 98.5523,49.5305 97.5,48.5C 97.5,47.8333 97.5,47.1667 97.5,46.5C 98.0899,45.234 98.5899,43.9007 99,42.5C 100.046,44.0905 101.213,45.5905 102.5,47C 103.5,47.6667 104.5,47.6667 105.5,47C 101.969,44.6674 99.9687,41.5007 99.5,37.5C 99.5,36.8333 99.5,36.1667 99.5,35.5 Z"/></g>
<g><path style="opacity:1" fill="#707070" d="M 109.5,39.5 C 108.751,40.531 108.085,41.6976 107.5,43C 106.251,43.7401 105.251,43.5735 104.5,42.5C 106.662,42.1028 107.995,40.7695 108.5,38.5C 109.107,38.6236 109.44,38.9569 109.5,39.5 Z"/></g>
<g><path style="opacity:1" fill="#a1a1a1" d="M 111.5,46.5 C 113.337,46.6395 113.67,47.3061 112.5,48.5C 111.702,48.0431 111.369,47.3764 111.5,46.5 Z"/></g>
<g><path style="opacity:1" fill="#898989" d="M 119.5,47.5 C 118.272,48.3065 117.272,49.3065 116.5,50.5C 116.231,48.5714 116.731,46.9047 118,45.5C 118.717,46.0442 119.217,46.7109 119.5,47.5 Z"/></g>
<g><path style="opacity:1" fill="#7e7e7e" d="M 147.5,52.5 C 146.472,52.9258 145.139,52.9258 143.5,52.5C 143.719,53.675 143.386,54.675 142.5,55.5C 140.429,54.2138 140.096,52.5471 141.5,50.5C 143.343,51.9387 145.01,51.772 146.5,50C 144.942,49.79 143.609,49.29 142.5,48.5C 144.582,48.528 146.416,47.8613 148,46.5C 147.865,48.4247 147.698,50.4247 147.5,52.5 Z"/></g>
<g><path style="opacity:1" fill="#777777" d="M 159.5,45.5 C 161.648,45.3894 161.981,46.056 160.5,47.5C 158.869,49.2974 156.869,50.4641 154.5,51C 155.624,51.2492 156.624,51.7492 157.5,52.5C 154.358,55.5909 152.025,55.0909 150.5,51C 154.181,50.1278 157.181,48.2945 159.5,45.5 Z"/></g>
<g><path style="opacity:1" fill="#101010" d="M 103.5,60.5 C 101.244,61.4385 98.9103,61.4385 96.5,60.5C 95.8333,60.5 95.5,60.1667 95.5,59.5C 95.5,59.1667 95.5,58.8333 95.5,58.5C 98.8204,57.2387 99.1537,55.572 96.5,53.5C 96.5,52.8333 96.5,52.1667 96.5,51.5C 96.4346,51.0618 96.6012,50.7284 97,50.5C 99.1458,51.3758 100.979,52.7091 102.5,54.5C 101.571,56.3217 102.238,57.6551 104.5,58.5C 104.137,59.1835 103.804,59.8501 103.5,60.5 Z"/></g>
<g><path style="opacity:1" fill="#e3e3e3" d="M 119.5,47.5 C 119.773,49.451 119.107,50.951 117.5,52C 118.451,52.7175 118.617,53.5509 118,54.5C 115.91,53.848 113.743,53.6813 111.5,54C 112.571,53.1482 113.571,52.3149 114.5,51.5C 115.492,51.6716 116.158,51.3382 116.5,50.5C 117.272,49.3065 118.272,48.3065 119.5,47.5 Z"/></g>
<g><path style="opacity:1" fill="#b8b8b8" d="M 96.5,53.5 C 99.1537,55.572 98.8204,57.2387 95.5,58.5C 94.5028,58.5299 93.8361,58.0299 93.5,57C 94.0707,55.4009 95.0707,54.2342 96.5,53.5 Z"/></g>
<g><path style="opacity:1" fill="#6b6b6b" d="M 97.5,48.5 C 98.5523,49.5305 99.8857,50.1971 101.5,50.5C 103.408,49.8639 105.075,49.8639 106.5,50.5C 106.167,51.1667 105.833,51.8333 105.5,52.5C 104.624,52.3691 103.957,52.7025 103.5,53.5C 103.942,54.7387 104.609,55.7387 105.5,56.5C 105.285,58.1788 105.952,59.1788 107.5,59.5C 106.335,61.1094 105.001,61.4427 103.5,60.5C 103.804,59.8501 104.137,59.1835 104.5,58.5C 102.238,57.6551 101.571,56.3217 102.5,54.5C 100.979,52.7091 99.1458,51.3758 97,50.5C 96.6012,50.7284 96.4346,51.0618 96.5,51.5C 95.1148,50.0527 95.4482,49.0527 97.5,48.5 Z"/></g>
<g><path style="opacity:1" fill="#979797" d="M 136.5,49.5 C 134.516,48.3058 132.516,48.3058 130.5,49.5C 129.477,51.8948 130.477,52.8948 133.5,52.5C 133.617,54.4835 132.95,56.1502 131.5,57.5C 130.702,57.0431 130.369,56.3764 130.5,55.5C 130.918,54.7784 131.584,54.2784 132.5,54C 132,53.8333 131.5,53.6667 131,53.5C 129.016,54.3393 127.183,55.3393 125.5,56.5C 124.554,55.0692 123.388,53.7358 122,52.5C 119.664,53.2921 119.164,54.6254 120.5,56.5C 119.452,57.548 118.452,58.548 117.5,59.5C 116.717,55.6067 114.717,54.7733 111.5,57C 112.696,57.6543 112.696,58.1543 111.5,58.5C 109.277,59.038 107.277,58.3714 105.5,56.5C 104.609,55.7387 103.942,54.7387 103.5,53.5C 103.957,52.7025 104.624,52.3691 105.5,52.5C 105.833,51.8333 106.167,51.1667 106.5,50.5C 109.206,50.5751 111.873,50.9084 114.5,51.5C 113.571,52.3149 112.571,53.1482 111.5,54C 113.743,53.6813 115.91,53.848 118,54.5C 118.617,53.5509 118.451,52.7175 117.5,52C 119.107,50.951 119.773,49.451 119.5,47.5C 120.268,48.2625 120.768,49.2625 121,50.5C 123.398,48.8197 124.565,46.4863 124.5,43.5C 123.209,43.7373 122.209,43.404 121.5,42.5C 123.717,41.7624 125.884,41.4291 128,41.5C 128.333,43.5 128.667,45.5 129,47.5C 129.333,47.1667 129.667,46.8333 130,46.5C 132.63,46.8592 134.797,47.8592 136.5,49.5 Z"/></g>
<g><path style="opacity:1" fill="#262626" d="M 124.5,49.5 C 125.552,49.3505 126.552,49.5172 127.5,50C 124.57,54.8499 123.57,54.6832 124.5,49.5 Z"/></g>
<g><path style="opacity:1" fill="#222222" d="M 105.5,52.5 C 106.822,52.67 107.989,52.3366 109,51.5C 109.483,52.448 109.649,53.448 109.5,54.5C 107.517,54.8432 106.183,54.1765 105.5,52.5 Z"/></g>
<g><path style="opacity:1" fill="#626262" d="M 136.5,49.5 C 138.132,52.673 139.465,56.0063 140.5,59.5C 142.099,59.2322 143.432,59.5655 144.5,60.5C 143.312,61.6843 142.145,61.6843 141,60.5C 140.667,61.5 140.333,62.5 140,63.5C 139.667,63.1667 139.333,62.8333 139,62.5C 137.658,58.2802 136.825,53.9468 136.5,49.5 Z"/></g>
<g><path style="opacity:1" fill="#5e5e5e" d="M 149.5,53.5 C 150.527,55.184 151.527,56.8506 152.5,58.5C 150.605,57.2972 148.605,56.1305 146.5,55C 147.527,54.4867 148.527,53.9867 149.5,53.5 Z"/></g>
<g><path style="opacity:1" fill="#f2f2f2" d="M 125.5,56.5 C 122.142,57.5269 120.475,59.8602 120.5,63.5C 124.111,63.6395 126.777,65.3062 128.5,68.5C 127.413,70.9752 126.747,70.9752 126.5,68.5C 122.635,65.4341 118.302,63.1008 113.5,61.5C 114.514,60.3263 115.847,59.6596 117.5,59.5C 118.452,58.548 119.452,57.548 120.5,56.5C 119.164,54.6254 119.664,53.2921 122,52.5C 123.388,53.7358 124.554,55.0692 125.5,56.5 Z"/></g>
<g><path style="opacity:1" fill="#c8c8c8" d="M 117.5,59.5 C 115.847,59.6596 114.514,60.3263 113.5,61.5C 112.833,61.8333 112.167,62.1667 111.5,62.5C 110.833,62.1667 110.167,61.8333 109.5,61.5C 109.5,60.1667 108.833,59.5 107.5,59.5C 105.952,59.1788 105.285,58.1788 105.5,56.5C 107.277,58.3714 109.277,59.038 111.5,58.5C 112.696,58.1543 112.696,57.6543 111.5,57C 114.717,54.7733 116.717,55.6067 117.5,59.5 Z"/></g>
<g><path style="opacity:1" fill="#e1e1e1" d="M 130.5,55.5 C 128.481,56.5383 128.147,57.8716 129.5,59.5C 130.048,61.3936 131.048,63.0603 132.5,64.5C 132.333,64.8333 132.167,65.1667 132,65.5C 131.292,64.6195 130.458,63.9528 129.5,63.5C 128.886,61.7175 127.72,60.3841 126,59.5C 125.517,58.552 125.351,57.552 125.5,56.5C 127.183,55.3393 129.016,54.3393 131,53.5C 131.5,53.6667 132,53.8333 132.5,54C 131.584,54.2784 130.918,54.7784 130.5,55.5 Z"/></g>
<g><path style="opacity:1" fill="#6f6f6f" d="M 95.5,59.5 C 95.5,60.1667 95.8333,60.5 96.5,60.5C 97.1667,61.1667 97.8333,61.8333 98.5,62.5C 96.4362,62.7619 95.1029,63.9286 94.5,66C 93.6667,66.1667 92.8333,66.3333 92,66.5C 90.6244,66.3158 89.7911,65.6491 89.5,64.5C 91.0815,62.3697 93.0815,60.7031 95.5,59.5 Z"/></g>
<g><path style="opacity:1" fill="#535353" d="M 151.5,59.5 C 150.36,60.8014 149.027,61.9681 147.5,63C 146.251,63.7401 145.251,63.5735 144.5,62.5C 145.922,62.2914 147.255,61.7914 148.5,61C 147.833,60.6667 147.167,60.3333 146.5,60C 148.134,59.5065 149.801,59.3398 151.5,59.5 Z"/></g>
<g><path style="opacity:1" fill="#2c2c2c" d="M 109.5,61.5 C 110.167,61.8333 110.833,62.1667 111.5,62.5C 111.5,63.1667 111.5,63.8333 111.5,64.5C 109.533,64.2606 107.699,64.5939 106,65.5C 106.18,63.4755 107.346,62.1422 109.5,61.5 Z"/></g>
<g><path style="opacity:1" fill="#c4c4c4" d="M 98.5,62.5 C 100.604,62.2011 102.604,62.5344 104.5,63.5C 103.807,64.5178 103.141,65.5178 102.5,66.5C 101.167,66.5 100.5,67.1667 100.5,68.5C 99.0689,68.1193 98.2355,67.1193 98,65.5C 96.1978,66.7893 95.0312,68.4559 94.5,70.5C 94.7743,79.0419 93.9409,79.3752 92,71.5C 91.3292,70.7476 90.4959,70.4142 89.5,70.5C 89.4465,68.4599 89.4465,66.4599 89.5,64.5C 89.7911,65.6491 90.6244,66.3158 92,66.5C 92.8333,66.3333 93.6667,66.1667 94.5,66C 95.1029,63.9286 96.4362,62.7619 98.5,62.5 Z"/></g>
<g><path style="opacity:1" fill="#efefef" d="M 111.5,64.5 C 113.527,64.3379 115.527,64.5045 117.5,65C 119.553,66.6779 119.887,68.5112 118.5,70.5C 117.341,68.7497 115.674,67.7497 113.5,67.5C 112.737,66.7321 111.737,66.2321 110.5,66C 111.056,65.6174 111.389,65.1174 111.5,64.5 Z"/></g>
<g><path style="opacity:1" fill="#848484" d="M 129.5,59.5 C 131.482,59.9954 133.482,60.4954 135.5,61C 134.5,61.3333 133.5,61.6667 132.5,62C 134.998,64.4479 136.498,67.2813 137,70.5C 136,69.1667 135,67.8333 134,66.5C 133.316,67.7839 133.483,68.9505 134.5,70C 133.244,70.4169 132.577,71.2502 132.5,72.5C 131.674,70.891 130.674,69.2243 129.5,67.5C 128.646,65.965 128.646,64.6316 129.5,63.5C 130.458,63.9528 131.292,64.6195 132,65.5C 132.167,65.1667 132.333,64.8333 132.5,64.5C 131.048,63.0603 130.048,61.3936 129.5,59.5 Z"/></g>
<g><path style="opacity:1" fill="#a5a5a5" d="M 107.5,59.5 C 108.833,59.5 109.5,60.1667 109.5,61.5C 107.346,62.1422 106.18,63.4755 106,65.5C 107.699,64.5939 109.533,64.2606 111.5,64.5C 111.389,65.1174 111.056,65.6174 110.5,66C 111.737,66.2321 112.737,66.7321 113.5,67.5C 112.508,67.3284 111.842,67.6618 111.5,68.5C 111.189,69.4778 110.522,70.1445 109.5,70.5C 108.264,69.7542 106.93,69.4208 105.5,69.5C 103.666,70.494 101.999,70.494 100.5,69.5C 103.127,68.8951 105.793,68.3951 108.5,68C 106.75,66.6814 104.75,66.1814 102.5,66.5C 103.141,65.5178 103.807,64.5178 104.5,63.5C 102.604,62.5344 100.604,62.2011 98.5,62.5C 97.8333,61.8333 97.1667,61.1667 96.5,60.5C 98.9103,61.4385 101.244,61.4385 103.5,60.5C 105.001,61.4427 106.335,61.1094 107.5,59.5 Z"/></g>
<g><path style="opacity:1" fill="#1a1a1a" d="M 102.5,66.5 C 104.75,66.1814 106.75,66.6814 108.5,68C 105.793,68.3951 103.127,68.8951 100.5,69.5C 100.5,69.1667 100.5,68.8333 100.5,68.5C 100.5,67.1667 101.167,66.5 102.5,66.5 Z"/></g>
<g><path style="opacity:1" fill="#181818" d="M 124.5,68.5 C 124.5,69.1667 124.5,69.8333 124.5,70.5C 124.058,71.2312 123.891,72.2312 124,73.5C 121.735,72.0842 120.569,70.0842 120.5,67.5C 121.959,67.4326 123.292,67.7659 124.5,68.5 Z"/></g>
<g><path style="opacity:1" fill="#626262" d="M 144.5,66.5 C 144.918,67.2216 145.584,67.7216 146.5,68C 144.246,68.6237 142.579,69.957 141.5,72C 142.167,72.3333 142.833,72.6667 143.5,73C 141.935,74.4119 140.269,75.5786 138.5,76.5C 138.187,71.6046 140.187,68.2713 144.5,66.5 Z"/></g>
<g><path style="opacity:1" fill="#9c9c9c" d="M 100.5,68.5 C 100.5,68.8333 100.5,69.1667 100.5,69.5C 99.5041,69.4142 98.6708,69.7476 98,70.5C 97.6667,72.8333 97.3333,75.1667 97,77.5C 96.6174,76.944 96.1174,76.6107 95.5,76.5C 95.7947,74.2646 95.4614,72.2646 94.5,70.5C 95.0312,68.4559 96.1978,66.7893 98,65.5C 98.2355,67.1193 99.0689,68.1193 100.5,68.5 Z"/></g>
<g><path style="opacity:1" fill="#1c1c1c" d="M 111.5,68.5 C 111.842,67.6618 112.508,67.3284 113.5,67.5C 115.674,67.7497 117.341,68.7497 118.5,70.5C 117.624,70.3691 116.957,70.7025 116.5,71.5C 117.716,72.0959 119.049,72.2626 120.5,72C 121.252,72.6708 121.586,73.5041 121.5,74.5C 117.898,74.2502 114.565,73.2502 111.5,71.5C 114.125,70.4657 114.125,69.4657 111.5,68.5 Z"/></g>
<g><path style="opacity:1" fill="#0c0c0c" d="M 100.5,69.5 C 101.999,70.494 103.666,70.494 105.5,69.5C 103.889,71.0946 101.889,72.2612 99.5,73C 101.355,73.4221 103.189,73.9221 105,74.5C 107.054,73.8107 108.054,72.8107 108,71.5C 110.412,73.7711 113.246,75.4378 116.5,76.5C 117.531,77.7003 118.365,79.0337 119,80.5C 119.383,79.944 119.883,79.6107 120.5,79.5C 120.611,80.1174 120.944,80.6174 121.5,81C 118.869,82.9234 117.703,85.4234 118,88.5C 119.113,87.695 120.279,87.0283 121.5,86.5C 122.167,86.5 122.833,86.5 123.5,86.5C 123.5,87.1667 123.5,87.8333 123.5,88.5C 123.5,89.1667 123.167,89.5 122.5,89.5C 117.212,90.4858 117.212,91.4858 122.5,92.5C 121.095,92.76 119.762,93.0934 118.5,93.5C 112.334,98.0157 105.667,98.6824 98.5,95.5C 98.7153,92.034 97.382,89.3674 94.5,87.5C 93.5344,85.604 93.2011,83.604 93.5,81.5C 94.675,81.719 95.675,81.3857 96.5,80.5C 95.7542,79.2638 95.4208,77.9305 95.5,76.5C 96.1174,76.6107 96.6174,76.944 97,77.5C 97.3333,75.1667 97.6667,72.8333 98,70.5C 98.6708,69.7476 99.5041,69.4142 100.5,69.5 Z"/></g>
<g><path style="opacity:1" fill="#adadad" d="M 125.5,56.5 C 125.351,57.552 125.517,58.552 126,59.5C 127.72,60.3841 128.886,61.7175 129.5,63.5C 128.646,64.6316 128.646,65.965 129.5,67.5C 129.854,71.6372 129.354,75.6372 128,79.5C 127.79,77.9419 127.29,76.6085 126.5,75.5C 126.33,74.1779 126.663,73.0113 127.5,72C 126.473,71.4867 125.473,70.9867 124.5,70.5C 124.5,69.8333 124.5,69.1667 124.5,68.5C 125.167,68.5 125.833,68.5 126.5,68.5C 126.747,70.9752 127.413,70.9752 128.5,68.5C 126.777,65.3062 124.111,63.6395 120.5,63.5C 120.475,59.8602 122.142,57.5269 125.5,56.5 Z"/></g>
<g><path style="opacity:1" fill="#5c5c5c" d="M 111.5,68.5 C 114.125,69.4657 114.125,70.4657 111.5,71.5C 114.565,73.2502 117.898,74.2502 121.5,74.5C 120.699,76.0418 120.366,77.7085 120.5,79.5C 119.883,79.6107 119.383,79.944 119,80.5C 118.365,79.0337 117.531,77.7003 116.5,76.5C 113.246,75.4378 110.412,73.7711 108,71.5C 108.054,72.8107 107.054,73.8107 105,74.5C 103.189,73.9221 101.355,73.4221 99.5,73C 101.889,72.2612 103.889,71.0946 105.5,69.5C 106.93,69.4208 108.264,69.7542 109.5,70.5C 110.522,70.1445 111.189,69.4778 111.5,68.5 Z"/></g>
<g><path style="opacity:1" fill="#8c8c8c" d="M 113.5,61.5 C 118.302,63.1008 122.635,65.4341 126.5,68.5C 125.833,68.5 125.167,68.5 124.5,68.5C 123.292,67.7659 121.959,67.4326 120.5,67.5C 120.569,70.0842 121.735,72.0842 124,73.5C 123.891,72.2312 124.058,71.2312 124.5,70.5C 125.473,70.9867 126.473,71.4867 127.5,72C 126.663,73.0113 126.33,74.1779 126.5,75.5C 126.715,77.1788 126.048,78.1788 124.5,78.5C 124.565,78.0618 124.399,77.7284 124,77.5C 123.29,78.9733 122.124,79.6399 120.5,79.5C 120.366,77.7085 120.699,76.0418 121.5,74.5C 121.586,73.5041 121.252,72.6708 120.5,72C 119.049,72.2626 117.716,72.0959 116.5,71.5C 116.957,70.7025 117.624,70.3691 118.5,70.5C 119.887,68.5112 119.553,66.6779 117.5,65C 115.527,64.5045 113.527,64.3379 111.5,64.5C 111.5,63.8333 111.5,63.1667 111.5,62.5C 112.167,62.1667 112.833,61.8333 113.5,61.5 Z"/></g>
<g><path style="opacity:1" fill="#6f6f6f" d="M 89.5,78.5 C 86.8688,79.8689 86.2022,79.2022 87.5,76.5C 87.0431,75.7025 86.3764,75.3691 85.5,75.5C 89.1207,71.3751 90.4541,72.3751 89.5,78.5 Z"/></g>
<g><path style="opacity:1" fill="#515151" d="M 133.5,73.5 C 134.167,73.5 134.833,73.5 135.5,73.5C 133.871,75.1959 134.204,76.1959 136.5,76.5C 137.898,81.0683 137.398,81.4016 135,77.5C 134.536,78.0944 134.369,78.7611 134.5,79.5C 133.71,80.6085 133.21,81.9419 133,83.5C 132.457,80.1322 132.624,76.7989 133.5,73.5 Z"/></g>
<g><path style="opacity:1" fill="#747474" d="M 89.5,70.5 C 90.4959,70.4142 91.3292,70.7476 92,71.5C 93.9409,79.3752 94.7743,79.0419 94.5,70.5C 95.4614,72.2646 95.7947,74.2646 95.5,76.5C 95.4208,77.9305 95.7542,79.2638 96.5,80.5C 95.675,81.3857 94.675,81.719 93.5,81.5C 93.1077,79.8211 92.6077,78.1545 92,76.5C 91.2797,78.1124 91.4464,79.6124 92.5,81C 91.9056,81.4643 91.2389,81.631 90.5,81.5C 89.596,80.791 89.2627,79.791 89.5,78.5C 90.7671,75.9387 90.7671,73.272 89.5,70.5 Z"/></g>
<g><path style="opacity:1" fill="#656565" d="M 103.5,79.5 C 103.5,80.5 103.5,81.5 103.5,82.5C 99.69,81.2458 99.69,80.2458 103.5,79.5 Z"/></g>
<g><path style="opacity:1" fill="#f1f1f1" d="M 104.5,78.5 C 106.854,78.838 109.187,79.338 111.5,80C 112.756,80.4169 113.423,81.2502 113.5,82.5C 113.5,84.5 112.5,85.5 110.5,85.5C 108.784,85.3713 107.117,85.038 105.5,84.5C 104.5,84.1667 103.833,83.5 103.5,82.5C 103.5,81.5 103.5,80.5 103.5,79.5C 103.5,78.8333 103.833,78.5 104.5,78.5 Z"/></g>
<g><path style="opacity:1" fill="#5e5e5e" d="M 80.5,78.5 C 81.552,78.3505 82.552,78.5172 83.5,79C 81.9751,80.0086 80.3084,80.5086 78.5,80.5C 78.9118,82.9726 77.9118,84.3059 75.5,84.5C 75.5,83.8333 75.5,83.1667 75.5,82.5C 76.5794,80.457 78.246,79.1237 80.5,78.5 Z"/></g>
<g><path style="opacity:1" fill="#e3e3e3" d="M 129.5,67.5 C 130.674,69.2243 131.674,70.891 132.5,72.5C 134.548,72.1596 135.548,72.4929 135.5,73.5C 134.833,73.5 134.167,73.5 133.5,73.5C 131.811,75.8429 130.477,78.5096 129.5,81.5C 128.833,82.1667 128.167,82.8333 127.5,83.5C 126.5,82.5 125.5,81.5 124.5,80.5C 124.5,79.8333 124.5,79.1667 124.5,78.5C 126.048,78.1788 126.715,77.1788 126.5,75.5C 127.29,76.6085 127.79,77.9419 128,79.5C 129.354,75.6372 129.854,71.6372 129.5,67.5 Z"/></g>
<g><path style="opacity:1" fill="#393939" d="M 93.5,81.5 C 93.2011,83.604 93.5344,85.604 94.5,87.5C 97.382,89.3674 98.7153,92.034 98.5,95.5C 95.1898,93.8536 92.5232,91.5203 90.5,88.5C 89.9329,86.0314 89.9329,83.698 90.5,81.5C 91.2389,81.631 91.9056,81.4643 92.5,81C 91.4464,79.6124 91.2797,78.1124 92,76.5C 92.6077,78.1545 93.1077,79.8211 93.5,81.5 Z"/></g>
<g><path style="opacity:1" fill="#878787" d="M 113.5,82.5 C 113.423,81.2502 112.756,80.4169 111.5,80C 109.187,79.338 106.854,78.838 104.5,78.5C 104.47,77.5028 104.97,76.8361 106,76.5C 109.486,76.8831 112.652,78.0498 115.5,80C 114.934,80.9947 114.267,81.828 113.5,82.5 Z"/></g>
<g><path style="opacity:1" fill="#ababab" d="M 124.5,80.5 C 125.5,81.5 126.5,82.5 127.5,83.5C 126.264,84.579 124.931,85.579 123.5,86.5C 122.833,86.5 122.167,86.5 121.5,86.5C 121.953,85.5416 122.619,84.7083 123.5,84C 121.388,82.7834 121.721,81.6168 124.5,80.5 Z"/></g>
<g><path style="opacity:1" fill="#575757" d="M 124.5,78.5 C 124.5,79.1667 124.5,79.8333 124.5,80.5C 121.721,81.6168 121.388,82.7834 123.5,84C 122.619,84.7083 121.953,85.5416 121.5,86.5C 120.279,87.0283 119.113,87.695 118,88.5C 117.703,85.4234 118.869,82.9234 121.5,81C 120.944,80.6174 120.611,80.1174 120.5,79.5C 122.124,79.6399 123.29,78.9733 124,77.5C 124.399,77.7284 124.565,78.0618 124.5,78.5 Z"/></g>
<g><path style="opacity:1" fill="#949494" d="M 133.5,73.5 C 132.624,76.7989 132.457,80.1322 133,83.5C 133.21,81.9419 133.71,80.6085 134.5,79.5C 134.5,81.1667 134.5,82.8333 134.5,84.5C 132.801,84.4729 131.467,83.8062 130.5,82.5C 130.5,81.8333 130.167,81.5 129.5,81.5C 130.477,78.5096 131.811,75.8429 133.5,73.5 Z"/></g>
<g><path style="opacity:1" fill="#525252" d="M 129.5,81.5 C 130.167,81.5 130.5,81.8333 130.5,82.5C 130.33,83.8221 130.663,84.9887 131.5,86C 129.867,86.4796 128.534,87.3129 127.5,88.5C 126.167,85.8333 124.833,85.8333 123.5,88.5C 123.5,87.8333 123.5,87.1667 123.5,86.5C 124.931,85.579 126.264,84.579 127.5,83.5C 128.167,82.8333 128.833,82.1667 129.5,81.5 Z"/></g>
<g><path style="opacity:1" fill="#bcbcbc" d="M 85.5,75.5 C 86.3764,75.3691 87.0431,75.7025 87.5,76.5C 86.2022,79.2022 86.8688,79.8689 89.5,78.5C 89.2627,79.791 89.596,80.791 90.5,81.5C 89.9329,83.698 89.9329,86.0314 90.5,88.5C 89.8826,88.3893 89.3826,88.056 89,87.5C 88.187,89.4357 87.687,91.4357 87.5,93.5C 86.0222,93.238 84.6888,93.5713 83.5,94.5C 86.3206,95.8418 86.1539,96.5084 83,96.5C 79.8461,96.5084 79.6794,95.8418 82.5,94.5C 81.675,93.6143 80.675,93.281 79.5,93.5C 83.1981,88.5565 82.1981,86.8899 76.5,88.5C 75.5084,88.3284 74.8417,88.6618 74.5,89.5C 73.1526,90.0283 71.8193,90.195 70.5,90C 71.8334,87.8094 73.5,85.976 75.5,84.5C 77.9118,84.3059 78.9118,82.9726 78.5,80.5C 80.3084,80.5086 81.9751,80.0086 83.5,79C 82.552,78.5172 81.552,78.3505 80.5,78.5C 81.6594,76.7497 83.326,75.7497 85.5,75.5 Z"/></g>
<g><path style="opacity:1" fill="#3a3a3a" d="M 79.5,81.5 C 82.7973,81.3287 83.1306,81.9954 80.5,83.5C 79.7025,83.0431 79.3691,82.3764 79.5,81.5 Z"/></g>
<g><path style="opacity:1" fill="#515151" d="M 105.5,84.5 C 107.117,85.038 108.784,85.3713 110.5,85.5C 110.53,86.4972 110.03,87.1639 109,87.5C 107.05,87.2926 105.884,86.2926 105.5,84.5 Z"/></g>
<g><path style="opacity:1" fill="#434343" d="M 90.5,88.5 C 91.2423,90.4258 92.2423,92.2591 93.5,94C 92.4232,94.4696 91.4232,94.3029 90.5,93.5C 89.5,93.5 88.5,93.5 87.5,93.5C 87.687,91.4357 88.187,89.4357 89,87.5C 89.3826,88.056 89.8826,88.3893 90.5,88.5 Z"/></g>
<g><path style="opacity:1" fill="#c2c2c2" d="M 127.5,88.5 C 126.069,89.7804 125.402,91.4471 125.5,93.5C 124.659,92.0736 123.659,90.7403 122.5,89.5C 123.167,89.5 123.5,89.1667 123.5,88.5C 124.833,85.8333 126.167,85.8333 127.5,88.5 Z"/></g>
<g><path style="opacity:1" fill="#787878" d="M 122.5,89.5 C 123.659,90.7403 124.659,92.0736 125.5,93.5C 125.674,95.861 126.007,98.1944 126.5,100.5C 126.167,100.5 125.833,100.5 125.5,100.5C 124.91,99.234 124.41,97.9007 124,96.5C 123.439,97.0219 122.772,97.3552 122,97.5C 120.923,96.5705 119.756,95.9038 118.5,95.5C 119.506,94.6043 119.506,93.9377 118.5,93.5C 119.762,93.0934 121.095,92.76 122.5,92.5C 117.212,91.4858 117.212,90.4858 122.5,89.5 Z"/></g>
<g><path style="opacity:1" fill="#969696" d="M 118.5,93.5 C 119.506,93.9377 119.506,94.6043 118.5,95.5C 118.66,97.1992 118.494,98.8659 118,100.5C 117.667,99.5 117.333,98.5 117,97.5C 115.687,98.5728 114.187,99.2395 112.5,99.5C 109.868,98.5601 107.202,98.3934 104.5,99C 105.252,99.6708 105.586,100.504 105.5,101.5C 104.833,101.5 104.167,101.5 103.5,101.5C 102.942,100.21 101.942,99.3768 100.5,99C 98.5,98.6667 96.5,98.3333 94.5,98C 95.1258,97.2496 95.6258,96.4162 96,95.5C 96.9772,96.7736 97.8106,96.7736 98.5,95.5C 105.667,98.6824 112.334,98.0157 118.5,93.5 Z"/></g>
<g><path style="opacity:1" fill="#545454" d="M 125.5,100.5 C 125.833,100.5 126.167,100.5 126.5,100.5C 127.49,106.645 127.823,112.978 127.5,119.5C 126.833,118.167 126.167,116.833 125.5,115.5C 126.399,111.705 126.399,107.705 125.5,103.5C 124.325,103.719 123.325,103.386 122.5,102.5C 123.602,101.824 124.602,101.158 125.5,100.5 Z"/></g>
<g><path style="opacity:1" fill="#858585" d="M 75.5,82.5 C 75.5,83.1667 75.5,83.8333 75.5,84.5C 73.5,85.976 71.8334,87.8094 70.5,90C 71.8193,90.195 73.1526,90.0283 74.5,89.5C 75.6226,90.7574 76.2893,90.4241 76.5,88.5C 82.1981,86.8899 83.1981,88.5565 79.5,93.5C 78.5,93.5 77.5,93.5 76.5,93.5C 76.1959,91.2043 75.1959,90.871 73.5,92.5C 71.7368,91.6655 70.0701,92.1655 68.5,94C 69.8333,94 71.1667,94 72.5,94C 71.2283,95.3068 70.2283,96.8068 69.5,98.5C 66.597,97.8987 63.7636,99.232 61,102.5C 60.3333,103.167 60.3333,103.833 61,104.5C 62.7533,103.373 64.5866,102.373 66.5,101.5C 67.5624,102.425 67.5624,103.425 66.5,104.5C 66.719,105.675 66.3857,106.675 65.5,107.5C 65.0024,106.397 64.6691,105.397 64.5,104.5C 63.6228,107.57 62.6228,110.57 61.5,113.5C 60.2921,114.234 58.9587,114.567 57.5,114.5C 58.9094,112.695 59.4094,110.695 59,108.5C 58.1627,110.007 56.9961,110.507 55.5,110C 56.6526,108.117 58.3193,107.284 60.5,107.5C 60.3433,108.873 60.51,110.207 61,111.5C 61.6667,109.5 61.6667,107.5 61,105.5C 60.2825,106.451 59.4491,106.617 58.5,106C 59.4506,105.282 59.6172,104.449 59,103.5C 58.2917,104.381 57.4584,105.047 56.5,105.5C 56.1667,105.5 55.8333,105.5 55.5,105.5C 55.5,104.833 55.5,104.167 55.5,103.5C 59.3498,101.996 62.6831,99.6629 65.5,96.5C 67.8739,91.0614 71.2072,86.3947 75.5,82.5 Z"/></g>
<g><path style="opacity:1" fill="#282828" d="M 76.5,93.5 C 75.209,93.7373 74.209,93.404 73.5,92.5C 75.1959,90.871 76.1959,91.2043 76.5,93.5 Z"/></g>
<g><path style="opacity:1" fill="#2d2d2d" d="M 76.5,88.5 C 76.2893,90.4241 75.6226,90.7574 74.5,89.5C 74.8417,88.6618 75.5084,88.3284 76.5,88.5 Z"/></g>
<g><path style="opacity:1" fill="#dfdfdf" d="M 73.5,92.5 C 74.209,93.404 75.209,93.7373 76.5,93.5C 77.5,93.5 78.5,93.5 79.5,93.5C 80.675,93.281 81.675,93.6143 82.5,94.5C 79.6794,95.8418 79.8461,96.5084 83,96.5C 86.1539,96.5084 86.3206,95.8418 83.5,94.5C 84.6888,93.5713 86.0222,93.238 87.5,93.5C 88.5,93.5 89.5,93.5 90.5,93.5C 90.5,95.5 90.5,97.5 90.5,99.5C 89.1667,99.5 87.8333,99.5 86.5,99.5C 86.3713,101.216 86.038,102.883 85.5,104.5C 85.1667,106.5 84.8333,108.5 84.5,110.5C 82.8333,110.5 81.1667,110.5 79.5,110.5C 79.3537,108.058 80.187,107.391 82,108.5C 82.5,108 83,107.5 83.5,107C 81.1902,106.503 78.8568,106.337 76.5,106.5C 76.719,107.675 76.3857,108.675 75.5,109.5C 74.5481,107.955 74.2148,106.288 74.5,104.5C 75.7928,102.636 75.7928,100.636 74.5,98.5C 72.8888,99.3202 72.2222,100.654 72.5,102.5C 70.5786,103.363 68.5786,104.029 66.5,104.5C 67.5624,103.425 67.5624,102.425 66.5,101.5C 64.5866,102.373 62.7533,103.373 61,104.5C 60.3333,103.833 60.3333,103.167 61,102.5C 63.7636,99.232 66.597,97.8987 69.5,98.5C 70.2283,96.8068 71.2283,95.3068 72.5,94C 71.1667,94 69.8333,94 68.5,94C 70.0701,92.1655 71.7368,91.6655 73.5,92.5 Z"/></g>
<g><path style="opacity:1" fill="#111111" d="M 72.5,102.5 C 73.8333,102.5 74.5,103.167 74.5,104.5C 73.8333,104.5 73.1667,104.5 72.5,104.5C 72.5,103.833 72.5,103.167 72.5,102.5 Z"/></g>
<g><path style="opacity:1" fill="#212121" d="M 76.5,101.5 C 79.1667,102.167 79.1667,102.833 76.5,103.5C 76.5,102.833 76.5,102.167 76.5,101.5 Z"/></g>
<g><path style="opacity:1" fill="#727272" d="M 74.5,104.5 C 74.5,103.167 73.8333,102.5 72.5,102.5C 72.2222,100.654 72.8888,99.3202 74.5,98.5C 75.7928,100.636 75.7928,102.636 74.5,104.5 Z"/></g>
<g><path style="opacity:1" fill="#8c8c8c" d="M 76.5,101.5 C 76.5,101.167 76.5,100.833 76.5,100.5C 77.5,100.5 78.5,100.5 79.5,100.5C 79.5,101.833 79.5,103.167 79.5,104.5C 78.209,104.737 77.209,104.404 76.5,103.5C 79.1667,102.833 79.1667,102.167 76.5,101.5 Z"/></g>
<g><path style="opacity:1" fill="#202020" d="M 79.5,100.5 C 78.5,100.5 77.5,100.5 76.5,100.5C 77.5,97.8333 78.5,97.8333 79.5,100.5 Z"/></g>
<g><path style="opacity:1" fill="#737373" d="M 90.5,99.5 C 92.6204,100.403 92.9538,101.737 91.5,103.5C 90.1667,103.5 89.5,104.167 89.5,105.5C 88.0413,105.567 86.7079,105.234 85.5,104.5C 86.038,102.883 86.3713,101.216 86.5,99.5C 87.8333,99.5 89.1667,99.5 90.5,99.5 Z"/></g>
<g><path style="opacity:1" fill="#1d1d1d" d="M 91.5,103.5 C 91.5,104.833 90.8333,105.5 89.5,105.5C 89.5,104.167 90.1667,103.5 91.5,103.5 Z"/></g>
<g><path style="opacity:1" fill="#c7c7c7" d="M 72.5,102.5 C 72.5,103.167 72.5,103.833 72.5,104.5C 72.9349,106.703 72.9349,108.703 72.5,110.5C 72.5,111.833 73.1667,112.5 74.5,112.5C 77.6224,112.28 80.9558,112.28 84.5,112.5C 84.2322,114.099 84.5655,115.432 85.5,116.5C 85.2175,121.579 84.2175,121.746 82.5,117C 83.694,114.342 82.694,113.176 79.5,113.5C 78.5,113.5 77.5,113.5 76.5,113.5C 76.5,114.5 76.5,115.5 76.5,116.5C 77.791,116.737 78.791,116.404 79.5,115.5C 80.2891,115.783 80.9558,116.283 81.5,117C 78.9159,118.83 76.2492,119.664 73.5,119.5C 76.3209,120.971 78.8209,120.637 81,118.5C 81.4828,119.448 81.6495,120.448 81.5,121.5C 78.6146,121.194 75.9479,121.527 73.5,122.5C 70.6726,122.584 68.006,123.25 65.5,124.5C 64.028,121.923 63.028,119.089 62.5,116C 63.8825,114.539 63.5492,113.706 61.5,113.5C 62.6228,110.57 63.6228,107.57 64.5,104.5C 64.6691,105.397 65.0024,106.397 65.5,107.5C 66.3857,106.675 66.719,105.675 66.5,104.5C 68.5786,104.029 70.5786,103.363 72.5,102.5 Z"/></g>
<g><path style="opacity:1" fill="#cacaca" d="M 90.5,88.5 C 92.5232,91.5203 95.1898,93.8536 98.5,95.5C 97.8106,96.7736 96.9772,96.7736 96,95.5C 95.6258,96.4162 95.1258,97.2496 94.5,98C 96.5,98.3333 98.5,98.6667 100.5,99C 101.942,99.3768 102.942,100.21 103.5,101.5C 103.762,102.978 103.429,104.311 102.5,105.5C 101.391,104.41 100.391,104.41 99.5,105.5C 104.252,108.771 106.252,107.438 105.5,101.5C 105.586,100.504 105.252,99.6708 104.5,99C 107.202,98.3934 109.868,98.5601 112.5,99.5C 114.187,99.2395 115.687,98.5728 117,97.5C 117.333,98.5 117.667,99.5 118,100.5C 118.494,98.8659 118.66,97.1992 118.5,95.5C 119.756,95.9038 120.923,96.5705 122,97.5C 122.772,97.3552 123.439,97.0219 124,96.5C 124.41,97.9007 124.91,99.234 125.5,100.5C 124.602,101.158 123.602,101.824 122.5,102.5C 123.325,103.386 124.325,103.719 125.5,103.5C 126.399,107.705 126.399,111.705 125.5,115.5C 125.762,116.978 125.429,118.311 124.5,119.5C 124.167,118.833 123.833,118.167 123.5,117.5C 124.156,115.547 124.489,113.547 124.5,111.5C 123.325,111.281 122.325,111.614 121.5,112.5C 121.569,114.278 121.903,116.111 122.5,118C 119.833,118.667 119.833,119.333 122.5,120C 121.833,120.333 121.167,120.667 120.5,121C 121.416,121.278 122.082,121.778 122.5,122.5C 121.609,123.11 120.609,123.443 119.5,123.5C 116.5,123.5 113.5,123.5 110.5,123.5C 110.167,123.5 109.833,123.5 109.5,123.5C 112.689,122.834 116.023,122.167 119.5,121.5C 117.979,121.12 116.313,120.954 114.5,121C 115.167,120.667 115.833,120.333 116.5,120C 115.748,119.329 115.414,118.496 115.5,117.5C 115.5,116.167 115.5,114.833 115.5,113.5C 114.167,113.5 112.833,113.5 111.5,113.5C 110.5,113.5 109.5,113.5 108.5,113.5C 108.5,115.833 108.5,118.167 108.5,120.5C 108.5,121.167 108.167,121.5 107.5,121.5C 107.217,120.711 106.717,120.044 106,119.5C 102.776,123.41 98.6091,125.077 93.5,124.5C 94.9516,123.698 96.6183,123.198 98.5,123C 97.0267,122.29 96.3601,121.124 96.5,119.5C 94.7376,119.643 93.0709,119.309 91.5,118.5C 90.0747,121.876 88.7414,122.043 87.5,119C 87.8361,117.97 88.5028,117.47 89.5,117.5C 91.1788,117.715 92.1788,117.048 92.5,115.5C 92.7678,113.901 92.4345,112.568 91.5,111.5C 90.8333,111.5 90.1667,111.5 89.5,111.5C 88.8333,111.167 88.1667,110.833 87.5,110.5C 86.8333,110.5 86.1667,110.5 85.5,110.5C 85.1667,110.5 84.8333,110.5 84.5,110.5C 84.8333,108.5 85.1667,106.5 85.5,104.5C 86.7079,105.234 88.0413,105.567 89.5,105.5C 90.8333,105.5 91.5,104.833 91.5,103.5C 92.9538,101.737 92.6204,100.403 90.5,99.5C 90.5,97.5 90.5,95.5 90.5,93.5C 91.4232,94.3029 92.4232,94.4696 93.5,94C 92.2423,92.2591 91.2423,90.4258 90.5,88.5 Z"/></g>
<g><path style="opacity:1" fill="#282828" d="M 112.5,105.5 C 113.675,105.281 114.675,105.614 115.5,106.5C 113.948,107.798 112.948,107.465 112.5,105.5 Z"/></g>
<g><path style="opacity:1" fill="#2c2c2c" d="M 109.5,102.5 C 110.376,102.369 111.043,102.702 111.5,103.5C 111.167,104.833 110.833,106.167 110.5,107.5C 109.548,105.955 109.215,104.288 109.5,102.5 Z"/></g>
<g><path style="opacity:1" fill="#454545" d="M 103.5,101.5 C 104.167,101.5 104.833,101.5 105.5,101.5C 106.252,107.438 104.252,108.771 99.5,105.5C 100.391,104.41 101.391,104.41 102.5,105.5C 103.429,104.311 103.762,102.978 103.5,101.5 Z"/></g>
<g><path style="opacity:1" fill="#252525" d="M 112.5,102.5 C 113.675,102.281 114.675,102.614 115.5,103.5C 113.948,104.798 112.948,104.465 112.5,102.5 Z"/></g>
<g><path style="opacity:1" fill="#232323" d="M 99.5,101.5 C 101.337,101.639 101.67,102.306 100.5,103.5C 99.7025,103.043 99.3691,102.376 99.5,101.5 Z"/></g>
<g><path style="opacity:1" fill="#282828" d="M 72.5,110.5 C 73.8333,110.5 74.5,111.167 74.5,112.5C 74.5,111.167 73.8333,110.5 72.5,110.5 Z"/></g>
<g><path style="opacity:1" fill="#353535" d="M 57.5,114.5 C 57.1788,116.048 56.1788,116.715 54.5,116.5C 54.5,118.167 54.5,119.833 54.5,121.5C 54.1667,121.5 53.8333,121.5 53.5,121.5C 52.596,120.791 52.2627,119.791 52.5,118.5C 51.3063,116.127 50.973,113.793 51.5,111.5C 52.086,111.291 52.586,110.957 53,110.5C 53.2022,112.256 53.7022,113.922 54.5,115.5C 55.4168,114.873 56.4168,114.539 57.5,114.5 Z"/></g>
<g><path style="opacity:1" fill="#2c2c2c" d="M 64.5,112.5 C 66.337,112.639 66.6704,113.306 65.5,114.5C 64.7025,114.043 64.3691,113.376 64.5,112.5 Z"/></g>
<g><path style="opacity:1" fill="#444444" d="M 111.5,113.5 C 110.699,115.042 110.366,116.708 110.5,118.5C 110.869,120.993 110.203,121.66 108.5,120.5C 108.5,118.167 108.5,115.833 108.5,113.5C 109.5,113.5 110.5,113.5 111.5,113.5 Z"/></g>
<g><path style="opacity:1" fill="#6e6e6e" d="M 51.5,105.5 C 49.3962,107.099 47.3962,108.932 45.5,111C 46.4506,111.718 46.6172,112.551 46,113.5C 44.7949,114.071 43.6283,114.738 42.5,115.5C 43.3966,115.669 44.3966,116.002 45.5,116.5C 44.1349,117.941 42.6349,119.274 41,120.5C 40.7266,122.101 40.2266,123.601 39.5,125C 40.3081,125.308 40.9747,125.808 41.5,126.5C 41.6065,129.4 41.2732,132.4 40.5,135.5C 43.9509,134.731 47.2842,133.897 50.5,133C 47.3855,135.854 43.7189,137.021 39.5,136.5C 39.0886,131.662 38.4219,126.995 37.5,122.5C 38.1667,120.167 38.8333,117.833 39.5,115.5C 41.9638,110.373 45.9638,107.04 51.5,105.5 Z"/></g>
<g><path style="opacity:1" fill="#c0c0c0" d="M 55.5,103.5 C 55.5,104.167 55.5,104.833 55.5,105.5C 53.2721,106.322 52.6054,107.655 53.5,109.5C 55.2882,108.717 56.2882,107.384 56.5,105.5C 57.4584,105.047 58.2917,104.381 59,103.5C 59.6172,104.449 59.4506,105.282 58.5,106C 59.4491,106.617 60.2825,106.451 61,105.5C 61.6667,107.5 61.6667,109.5 61,111.5C 60.51,110.207 60.3433,108.873 60.5,107.5C 58.3193,107.284 56.6526,108.117 55.5,110C 56.9961,110.507 58.1627,110.007 59,108.5C 59.4094,110.695 58.9094,112.695 57.5,114.5C 56.4168,114.539 55.4168,114.873 54.5,115.5C 53.7022,113.922 53.2022,112.256 53,110.5C 52.586,110.957 52.086,111.291 51.5,111.5C 50.973,113.793 51.3063,116.127 52.5,118.5C 50.7483,118.418 49.7483,119.251 49.5,121C 50.1476,122.44 50.4809,123.94 50.5,125.5C 51.5,125.5 52.5,125.5 53.5,125.5C 53.8693,127.441 54.536,129.275 55.5,131C 52.9783,133.09 50.3116,134.924 47.5,136.5C 45.0075,137.774 42.3408,138.44 39.5,138.5C 38.2101,137.942 37.3768,136.942 37,135.5C 36.4657,131.141 36.6324,126.808 37.5,122.5C 38.4219,126.995 39.0886,131.662 39.5,136.5C 43.7189,137.021 47.3855,135.854 50.5,133C 47.2842,133.897 43.9509,134.731 40.5,135.5C 41.2732,132.4 41.6065,129.4 41.5,126.5C 40.9747,125.808 40.3081,125.308 39.5,125C 40.2266,123.601 40.7266,122.101 41,120.5C 42.6349,119.274 44.1349,117.941 45.5,116.5C 44.3966,116.002 43.3966,115.669 42.5,115.5C 43.6283,114.738 44.7949,114.071 46,113.5C 46.6172,112.551 46.4506,111.718 45.5,111C 47.3962,108.932 49.3962,107.099 51.5,105.5C 52.6715,104.655 54.0048,103.989 55.5,103.5 Z"/></g>
<g><path style="opacity:1" fill="#1d1d1d" d="M 55.5,105.5 C 55.8333,105.5 56.1667,105.5 56.5,105.5C 56.2882,107.384 55.2882,108.717 53.5,109.5C 52.6054,107.655 53.2721,106.322 55.5,105.5 Z"/></g>
<g><path style="opacity:1" fill="#797979" d="M 72.5,113.5 C 73.5,113.5 74.5,113.5 75.5,113.5C 75.5,114.5 75.5,115.5 75.5,116.5C 73.8333,116.5 72.1667,116.5 70.5,116.5C 71.0522,118.331 71.0522,119.997 70.5,121.5C 69.5344,119.604 69.2011,117.604 69.5,115.5C 71.1788,115.715 72.1788,115.048 72.5,113.5 Z"/></g>
<g><path style="opacity:1" fill="#424242" d="M 79.5,113.5 C 79.5,114.167 79.5,114.833 79.5,115.5C 78.791,116.404 77.791,116.737 76.5,116.5C 76.5,115.5 76.5,114.5 76.5,113.5C 77.5,113.5 78.5,113.5 79.5,113.5 Z"/></g>
<g><path style="opacity:1" fill="#6c6c6c" d="M 98.5,112.5 C 100.5,112.5 102.5,112.5 104.5,112.5C 104.799,114.604 104.466,116.604 103.5,118.5C 102.262,114.689 101.596,114.689 101.5,118.5C 100.5,118.5 99.5,118.5 98.5,118.5C 98.5,116.5 98.5,114.5 98.5,112.5 Z"/></g>
<g><path style="opacity:1" fill="#555555" d="M 61.5,113.5 C 63.5492,113.706 63.8825,114.539 62.5,116C 63.028,119.089 64.028,121.923 65.5,124.5C 64.8902,125.391 64.5569,126.391 64.5,127.5C 62.3523,127.611 62.019,126.944 63.5,125.5C 62.189,121.611 61.5224,117.611 61.5,113.5 Z"/></g>
<g><path style="opacity:1" fill="#262626" d="M 92.5,115.5 C 92.1788,117.048 91.1788,117.715 89.5,117.5C 89.4017,114.752 90.4017,114.086 92.5,115.5 Z"/></g>
<g><path style="opacity:1" fill="#424242" d="M 64.5,115.5 C 67.9571,115.667 68.2904,116.667 65.5,118.5C 64.6143,117.675 64.281,116.675 64.5,115.5 Z"/></g>
<g><path style="opacity:1" fill="#7e7e7e" d="M 111.5,113.5 C 112.833,113.5 114.167,113.5 115.5,113.5C 115.5,114.833 115.5,116.167 115.5,117.5C 113.958,118.301 112.292,118.634 110.5,118.5C 110.366,116.708 110.699,115.042 111.5,113.5 Z"/></g>
<g><path style="opacity:1" fill="#8f8f8f" d="M 125.5,115.5 C 126.167,116.833 126.833,118.167 127.5,119.5C 127.5,120.167 127.5,120.833 127.5,121.5C 125.784,121.629 124.117,121.962 122.5,122.5C 122.082,121.778 121.416,121.278 120.5,121C 121.167,120.667 121.833,120.333 122.5,120C 119.833,119.333 119.833,118.667 122.5,118C 121.903,116.111 121.569,114.278 121.5,112.5C 122.325,111.614 123.325,111.281 124.5,111.5C 124.489,113.547 124.156,115.547 123.5,117.5C 123.833,118.167 124.167,118.833 124.5,119.5C 125.429,118.311 125.762,116.978 125.5,115.5 Z"/></g>
<g><path style="opacity:1" fill="#111111" d="M 39.5,115.5 C 38.8333,117.833 38.1667,120.167 37.5,122.5C 36.6324,126.808 36.4657,131.141 37,135.5C 37.3768,136.942 38.2101,137.942 39.5,138.5C 41.9418,139.182 44.4418,139.515 47,139.5C 46.8712,143.205 46.5379,146.872 46,150.5C 46.3076,149.692 46.8076,149.025 47.5,148.5C 48.2621,149.628 48.9288,150.795 49.5,152C 50.635,152.749 51.635,152.583 52.5,151.5C 50.703,150.305 49.703,148.638 49.5,146.5C 51.5901,146.55 52.9234,145.55 53.5,143.5C 51.1321,141.467 49.1321,139.133 47.5,136.5C 50.3116,134.924 52.9783,133.09 55.5,131C 54.536,129.275 53.8693,127.441 53.5,125.5C 53.5,124.167 53.5,122.833 53.5,121.5C 53.8333,121.5 54.1667,121.5 54.5,121.5C 55.1151,125.847 56.6151,129.847 59,133.5C 61.09,131.584 62.9233,129.584 64.5,127.5C 64.5569,126.391 64.8902,125.391 65.5,124.5C 68.006,123.25 70.6726,122.584 73.5,122.5C 73.9382,122.435 74.2716,122.601 74.5,123C 73.6383,125.734 72.805,125.901 72,123.5C 70.173,125.24 70.3397,126.907 72.5,128.5C 74.2069,124.864 75.3736,124.864 76,128.5C 76.3333,128.167 76.6667,127.833 77,127.5C 77.3845,129.197 77.2178,130.863 76.5,132.5C 75.6618,132.842 75.3284,133.508 75.5,134.5C 74.8333,134.833 74.1667,135.167 73.5,135.5C 72.35,137.267 73.0167,138.433 75.5,139C 73.6794,141.244 71.346,142.41 68.5,142.5C 68.5,141.833 68.1667,141.5 67.5,141.5C 67.6287,139.784 67.962,138.117 68.5,136.5C 68.8333,136.5 69.1667,136.5 69.5,136.5C 70.2674,135.828 70.9341,134.995 71.5,134C 69.5,133.667 67.5,133.333 65.5,133C 66.1667,132 66.8333,131 67.5,130C 65.332,129.751 63.6653,130.584 62.5,132.5C 61.0937,132.973 60.427,133.973 60.5,135.5C 59.9035,136.935 59.9035,138.602 60.5,140.5C 62.1667,140.5 63.8333,140.5 65.5,140.5C 65.7261,143.249 65.3928,145.916 64.5,148.5C 65.2334,149.087 66.2334,149.087 67.5,148.5C 67.5,148.833 67.5,149.167 67.5,149.5C 65.9897,150.836 64.3231,152.003 62.5,153C 61.3044,153.654 61.3044,154.154 62.5,154.5C 65.5761,151.839 67.9095,152.505 69.5,156.5C 71.5212,155.145 73.1879,153.479 74.5,151.5C 75.1667,151.167 75.8333,150.833 76.5,150.5C 79.3522,151.794 79.6856,153.294 77.5,155C 78.549,155.492 79.549,155.326 80.5,154.5C 81.1667,155.167 81.8333,155.833 82.5,156.5C 83.6868,155.347 84.6868,155.347 85.5,156.5C 82.3968,157.664 79.3968,158.664 76.5,159.5C 76.5,160.167 76.5,160.833 76.5,161.5C 74.857,161.52 73.5237,160.853 72.5,159.5C 71.8933,159.624 71.56,159.957 71.5,160.5C 70.4168,160.539 69.4168,160.873 68.5,161.5C 67.7348,160.388 66.7348,159.721 65.5,159.5C 63.4143,157.977 61.7476,158.31 60.5,160.5C 59.8333,161.833 58.8333,162.833 57.5,163.5C 56.962,161.883 56.6287,160.216 56.5,158.5C 54.2646,158.205 52.2646,158.539 50.5,159.5C 47.6004,160.47 44.4337,160.47 41,159.5C 38.957,161.088 39.1236,162.421 41.5,163.5C 43.9798,163.402 46.4798,163.402 49,163.5C 49.9503,162.978 50.7836,162.311 51.5,161.5C 52.2975,161.957 52.6309,162.624 52.5,163.5C 51.5,164.167 50.5,164.833 49.5,165.5C 45.9581,165.813 42.6248,165.479 39.5,164.5C 38.1516,163.399 36.6516,162.399 35,161.5C 34.9005,159.347 34.0672,157.681 32.5,156.5C 29.3273,155.632 26.3273,155.632 23.5,156.5C 22.2352,155.037 20.2352,153.704 17.5,152.5C 18.2389,152.631 18.9056,152.464 19.5,152C 18.5291,150.519 17.1958,149.685 15.5,149.5C 14.3143,148.039 14.3143,146.705 15.5,145.5C 16.1667,145.5 16.8333,145.5 17.5,145.5C 21.1057,151.552 26.1057,153.052 32.5,150C 30.765,149.349 29.0983,149.515 27.5,150.5C 26.2613,150.058 25.2613,149.391 24.5,148.5C 26.5625,147.224 28.8958,146.39 31.5,146C 31.8333,145.667 32.1667,145.333 32.5,145C 31.552,144.517 30.552,144.351 29.5,144.5C 28.8333,144.5 28.5,144.167 28.5,143.5C 30.4286,143.769 32.0953,143.269 33.5,142C 32.5301,140.32 31.5301,138.82 30.5,137.5C 33.3655,135.458 33.0321,134.292 29.5,134C 30.7599,131.114 32.0932,128.281 33.5,125.5C 33.1667,124.833 32.8333,124.167 32.5,123.5C 34.8508,120.761 37.1841,118.095 39.5,115.5 Z"/></g>
<g><path style="opacity:1" fill="#686868" d="M 52.5,118.5 C 52.2627,119.791 52.596,120.791 53.5,121.5C 53.5,122.833 53.5,124.167 53.5,125.5C 52.5,125.5 51.5,125.5 50.5,125.5C 50.4809,123.94 50.1476,122.44 49.5,121C 49.7483,119.251 50.7483,118.418 52.5,118.5 Z"/></g>
<g><path style="opacity:1" fill="#c6c6c6" d="M 61.5,113.5 C 61.5224,117.611 62.189,121.611 63.5,125.5C 62.019,126.944 62.3523,127.611 64.5,127.5C 62.9233,129.584 61.09,131.584 59,133.5C 56.6151,129.847 55.1151,125.847 54.5,121.5C 54.5,119.833 54.5,118.167 54.5,116.5C 56.1788,116.715 57.1788,116.048 57.5,114.5C 58.9587,114.567 60.2921,114.234 61.5,113.5 Z"/></g>
<g><path style="opacity:1" fill="#a3a3a3" d="M 115.5,117.5 C 115.414,118.496 115.748,119.329 116.5,120C 115.833,120.333 115.167,120.667 114.5,121C 116.313,120.954 117.979,121.12 119.5,121.5C 116.023,122.167 112.689,122.834 109.5,123.5C 108.5,123.167 107.833,122.5 107.5,121.5C 108.167,121.5 108.5,121.167 108.5,120.5C 110.203,121.66 110.869,120.993 110.5,118.5C 112.292,118.634 113.958,118.301 115.5,117.5 Z"/></g>
<g><path style="opacity:1" fill="#a3a3a3" d="M 72.5,104.5 C 73.1667,104.5 73.8333,104.5 74.5,104.5C 74.2148,106.288 74.5481,107.955 75.5,109.5C 76.3857,108.675 76.719,107.675 76.5,106.5C 78.8568,106.337 81.1902,106.503 83.5,107C 83,107.5 82.5,108 82,108.5C 80.187,107.391 79.3537,108.058 79.5,110.5C 81.1667,110.5 82.8333,110.5 84.5,110.5C 84.8333,110.5 85.1667,110.5 85.5,110.5C 86.1667,113.167 86.8333,113.167 87.5,110.5C 88.1667,110.833 88.8333,111.167 89.5,111.5C 90.1667,114.167 90.8333,114.167 91.5,111.5C 92.4345,112.568 92.7678,113.901 92.5,115.5C 90.4017,114.086 89.4017,114.752 89.5,117.5C 88.5028,117.47 87.8361,117.97 87.5,119C 88.7414,122.043 90.0747,121.876 91.5,118.5C 93.0709,119.309 94.7376,119.643 96.5,119.5C 96.3601,121.124 97.0267,122.29 98.5,123C 96.6183,123.198 94.9516,123.698 93.5,124.5C 89.4432,124.152 85.4432,123.486 81.5,122.5C 81.5,122.167 81.5,121.833 81.5,121.5C 81.6495,120.448 81.4828,119.448 81,118.5C 78.8209,120.637 76.3209,120.971 73.5,119.5C 76.2492,119.664 78.9159,118.83 81.5,117C 80.9558,116.283 80.2891,115.783 79.5,115.5C 79.5,114.833 79.5,114.167 79.5,113.5C 82.694,113.176 83.694,114.342 82.5,117C 84.2175,121.746 85.2175,121.579 85.5,116.5C 84.5655,115.432 84.2322,114.099 84.5,112.5C 80.9558,112.28 77.6224,112.28 74.5,112.5C 74.5,111.167 73.8333,110.5 72.5,110.5C 72.9349,108.703 72.9349,106.703 72.5,104.5 Z"/></g>
<g><path style="opacity:1" fill="#0c0c0c" d="M 85.5,116.5 C 85.6395,114.663 86.3061,114.33 87.5,115.5C 87.0431,116.298 86.3764,116.631 85.5,116.5 Z"/></g>
<g><path style="opacity:1" fill="#131313" d="M 89.5,111.5 C 90.1667,111.5 90.8333,111.5 91.5,111.5C 90.8333,114.167 90.1667,114.167 89.5,111.5 Z"/></g>
<g><path style="opacity:1" fill="#101010" d="M 85.5,110.5 C 86.1667,110.5 86.8333,110.5 87.5,110.5C 86.8333,113.167 86.1667,113.167 85.5,110.5 Z"/></g>
<g><path style="opacity:1" fill="#0e0e0e" d="M 127.5,121.5 C 125.534,123.804 123.534,126.137 121.5,128.5C 120.438,126.978 119.771,125.312 119.5,123.5C 120.609,123.443 121.609,123.11 122.5,122.5C 124.117,121.962 125.784,121.629 127.5,121.5 Z"/></g>
<g><path style="opacity:1" fill="#2e2e2e" d="M 133.5,122.5 C 132.833,122.833 132.167,123.167 131.5,123.5C 130.167,123.5 129.5,122.833 129.5,121.5C 130.583,121.461 131.583,121.127 132.5,120.5C 133.298,120.957 133.631,121.624 133.5,122.5 Z"/></g>
<g><path style="opacity:1" fill="#303030" d="M 42.5,123.5 C 44.9732,123.947 45.1399,124.947 43,126.5C 42.5172,125.552 42.3505,124.552 42.5,123.5 Z"/></g>
<g><path style="opacity:1" fill="#101010" d="M 107.5,121.5 C 107.833,122.5 108.5,123.167 109.5,123.5C 109.833,123.5 110.167,123.5 110.5,123.5C 112.969,124.317 115.635,124.817 118.5,125C 115.833,126.333 115.833,127.667 118.5,129C 118.632,132.547 118.298,136.047 117.5,139.5C 117.912,137.027 116.912,135.694 114.5,135.5C 114.657,134.127 114.49,132.793 114,131.5C 113.345,133.628 112.511,135.628 111.5,137.5C 109.542,138.791 107.876,140.458 106.5,142.5C 109.199,145.394 109.032,148.06 106,150.5C 104.446,148.073 103.279,148.073 102.5,150.5C 101.778,150.918 101.278,151.584 101,152.5C 100.667,151.833 100.333,151.167 100,150.5C 98.331,152.169 97.4977,154.169 97.5,156.5C 97.5,156.833 97.5,157.167 97.5,157.5C 96.8333,157.167 96.1667,156.833 95.5,156.5C 92.2773,152.278 89.944,147.611 88.5,142.5C 88.2786,139.721 88.612,137.054 89.5,134.5C 89.4248,131.593 88.5914,128.927 87,126.5C 86.1841,125.177 85.0174,124.511 83.5,124.5C 82.0484,123.698 80.3817,123.198 78.5,123C 79.448,122.517 80.448,122.351 81.5,122.5C 85.4432,123.486 89.4432,124.152 93.5,124.5C 98.6091,125.077 102.776,123.41 106,119.5C 106.717,120.044 107.217,120.711 107.5,121.5 Z"/></g>
<g><path style="opacity:1" fill="#bababa" d="M 133.5,122.5 C 134.924,125.125 134.591,127.458 132.5,129.5C 131.121,126.953 129.454,126.953 127.5,129.5C 122.292,128.182 122.292,126.682 127.5,125C 126.304,124.346 126.304,123.846 127.5,123.5C 128.833,124.5 130.167,125.5 131.5,126.5C 134.045,125.451 134.045,124.451 131.5,123.5C 132.167,123.167 132.833,122.833 133.5,122.5 Z"/></g>
<g><path style="opacity:1" fill="#7c7c7c" d="M 106.5,132.5 C 106.5,131.167 106.5,129.833 106.5,128.5C 107.404,127.791 107.737,126.791 107.5,125.5C 109.5,125.5 111.5,125.5 113.5,125.5C 113.5,126.833 113.5,128.167 113.5,129.5C 111.876,129.36 110.71,130.027 110,131.5C 109.667,130.833 109.333,130.167 109,129.5C 108.764,131.119 107.931,132.119 106.5,132.5 Z"/></g>
<g><path style="opacity:1" fill="#1d1d1d" d="M 42.5,127.5 C 44.4646,127.948 44.7979,128.948 43.5,130.5C 42.6143,129.675 42.281,128.675 42.5,127.5 Z"/></g>
<g><path style="opacity:1" fill="#777777" d="M 73.5,122.5 C 75.9479,121.527 78.6146,121.194 81.5,121.5C 81.5,121.833 81.5,122.167 81.5,122.5C 80.448,122.351 79.448,122.517 78.5,123C 80.3817,123.198 82.0484,123.698 83.5,124.5C 81.8333,124.5 80.1667,124.5 78.5,124.5C 78.3505,125.552 78.5172,126.552 79,127.5C 80.9033,127.306 82.7367,127.306 84.5,127.5C 83.9953,128.919 82.9953,129.585 81.5,129.5C 79.5887,130.075 77.922,131.075 76.5,132.5C 77.2178,130.863 77.3845,129.197 77,127.5C 76.6667,127.833 76.3333,128.167 76,128.5C 75.3736,124.864 74.2069,124.864 72.5,128.5C 70.3397,126.907 70.173,125.24 72,123.5C 72.805,125.901 73.6383,125.734 74.5,123C 74.2716,122.601 73.9382,122.435 73.5,122.5 Z"/></g>
<g><path style="opacity:1" fill="#909090" d="M 101.5,126.5 C 100.77,127.712 99.7701,128.712 98.5,129.5C 99.6527,130.687 99.6527,131.687 98.5,132.5C 97.7321,131.737 97.2321,130.737 97,129.5C 96.6892,131.556 96.1892,133.556 95.5,135.5C 93.5896,136.712 93.2563,136.379 94.5,134.5C 93.2147,131.979 92.5481,129.313 92.5,126.5C 95.5,126.5 98.5,126.5 101.5,126.5 Z"/></g>
<g><path style="opacity:1" fill="#c2c2c2" d="M 106.5,128.5 C 106.5,129.833 106.5,131.167 106.5,132.5C 106.5,132.833 106.5,133.167 106.5,133.5C 105.33,135.279 103.664,136.279 101.5,136.5C 101.662,134.473 101.495,132.473 101,130.5C 100.71,132.919 99.8763,134.253 98.5,134.5C 98.5,133.833 98.5,133.167 98.5,132.5C 99.6527,131.687 99.6527,130.687 98.5,129.5C 99.7701,128.712 100.77,127.712 101.5,126.5C 102.458,126.953 103.292,127.619 104,128.5C 104.547,121.948 105.38,121.948 106.5,128.5 Z"/></g>
<g><path style="opacity:1" fill="#7a7a7a" d="M 127.5,121.5 C 128.167,121.5 128.833,121.5 129.5,121.5C 129.5,122.833 130.167,123.5 131.5,123.5C 134.045,124.451 134.045,125.451 131.5,126.5C 130.167,125.5 128.833,124.5 127.5,123.5C 126.304,123.846 126.304,124.346 127.5,125C 122.292,126.682 122.292,128.182 127.5,129.5C 129.454,126.953 131.121,126.953 132.5,129.5C 132.35,131.143 132.017,132.81 131.5,134.5C 131.217,133.711 130.717,133.044 130,132.5C 128.855,133.684 127.688,133.684 126.5,132.5C 124.989,130.559 122.989,130.059 120.5,131C 120.833,131.333 121.167,131.667 121.5,132C 120.692,132.308 120.025,132.808 119.5,133.5C 119.838,135.655 119.838,137.989 119.5,140.5C 118.508,140.672 117.842,140.338 117.5,139.5C 118.298,136.047 118.632,132.547 118.5,129C 115.833,127.667 115.833,126.333 118.5,125C 115.635,124.817 112.969,124.317 110.5,123.5C 113.5,123.5 116.5,123.5 119.5,123.5C 119.771,125.312 120.438,126.978 121.5,128.5C 123.534,126.137 125.534,123.804 127.5,121.5 Z"/></g>
<g><path style="opacity:1" fill="#494949" d="M 81.5,129.5 C 81.5,130.5 81.5,131.5 81.5,132.5C 80.3652,133.103 79.3652,133.436 78.5,133.5C 77.609,134.11 76.609,134.443 75.5,134.5C 75.3284,133.508 75.6618,132.842 76.5,132.5C 77.922,131.075 79.5887,130.075 81.5,129.5 Z"/></g>
<g><path style="opacity:1" fill="#7a7a7a" d="M 69.5,136.5 C 67.5285,134.761 65.1951,133.428 62.5,132.5C 63.6653,130.584 65.332,129.751 67.5,130C 66.8333,131 66.1667,132 65.5,133C 67.5,133.333 69.5,133.667 71.5,134C 70.9341,134.995 70.2674,135.828 69.5,136.5 Z"/></g>
<g><path style="opacity:1" fill="#a9a9a9" d="M 81.5,132.5 C 85.1396,133.937 85.973,136.27 84,139.5C 83.6667,138.167 83.3333,136.833 83,135.5C 81.143,136.167 79.643,135.5 78.5,133.5C 79.3652,133.436 80.3652,133.103 81.5,132.5 Z"/></g>
<g><path style="opacity:1" fill="#2a2a2a" d="M 125.5,133.5 C 125.732,137.457 124.899,141.124 123,144.5C 122.617,143.944 122.117,143.611 121.5,143.5C 121.335,140.482 121.502,137.482 122,134.5C 122.333,134.833 122.667,135.167 123,135.5C 123.333,134.167 123.667,132.833 124,131.5C 124.717,132.044 125.217,132.711 125.5,133.5 Z"/></g>
<g><path style="opacity:1" fill="#c9c9c9" d="M 62.5,132.5 C 65.1951,133.428 67.5285,134.761 69.5,136.5C 69.1667,136.5 68.8333,136.5 68.5,136.5C 65.9456,135.403 63.7789,136.07 62,138.5C 61.7679,137.263 61.2679,136.263 60.5,135.5C 60.427,133.973 61.0937,132.973 62.5,132.5 Z"/></g>
<g><path style="opacity:1" fill="#808080" d="M 106.5,133.5 C 105.74,137.89 103.073,140.223 98.5,140.5C 98.5198,138.857 97.8532,137.524 96.5,136.5C 96.8555,135.478 97.5222,134.811 98.5,134.5C 99.8763,134.253 100.71,132.919 101,130.5C 101.495,132.473 101.662,134.473 101.5,136.5C 103.664,136.279 105.33,135.279 106.5,133.5 Z"/></g>
<g><path style="opacity:1" fill="#b5b5b5" d="M 114.5,135.5 C 115.833,136.5 115.833,137.5 114.5,138.5C 113.778,138.082 113.278,137.416 113,136.5C 112.617,137.056 112.117,137.389 111.5,137.5C 112.511,135.628 113.345,133.628 114,131.5C 114.49,132.793 114.657,134.127 114.5,135.5 Z"/></g>
<g><path style="opacity:1" fill="#5e5e5e" d="M 89.5,134.5 C 88.612,137.054 88.2786,139.721 88.5,142.5C 87.8442,141.378 87.5108,140.045 87.5,138.5C 87.5854,136.667 88.2521,135.334 89.5,134.5 Z"/></g>
<g><path style="opacity:1" fill="#686868" d="M 114.5,135.5 C 116.912,135.694 117.912,137.027 117.5,139.5C 116.833,139.5 116.5,139.833 116.5,140.5C 115.833,139.833 115.167,139.167 114.5,138.5C 115.833,137.5 115.833,136.5 114.5,135.5 Z"/></g>
<g><path style="opacity:1" fill="#191919" d="M 114.5,138.5 C 115.167,139.167 115.833,139.833 116.5,140.5C 116.738,144.099 115.738,144.433 113.5,141.5C 112.304,141.846 112.304,142.346 113.5,143C 112.906,143.464 112.239,143.631 111.5,143.5C 110.89,142.609 110.557,141.609 110.5,140.5C 110.557,139.391 110.89,138.391 111.5,137.5C 112.117,137.389 112.617,137.056 113,136.5C 113.278,137.416 113.778,138.082 114.5,138.5 Z"/></g>
<g><path style="opacity:1" fill="#a1a1a1" d="M 30.5,137.5 C 31.5301,138.82 32.5301,140.32 33.5,142C 32.0953,143.269 30.4286,143.769 28.5,143.5C 29.1383,141.54 29.1383,139.707 28.5,138C 29.0944,137.536 29.7611,137.369 30.5,137.5 Z"/></g>
<g><path style="opacity:1" fill="#9b9b9b" d="M 73.5,135.5 C 79.1541,136.904 81.6541,140.57 81,146.5C 80,143.833 79,143.833 78,146.5C 77.7679,145.263 77.2679,144.263 76.5,143.5C 75.6522,142.375 74.6522,142.375 73.5,143.5C 71.5853,143.784 69.9187,143.451 68.5,142.5C 71.346,142.41 73.6794,141.244 75.5,139C 73.0167,138.433 72.35,137.267 73.5,135.5 Z"/></g>
<g><path style="opacity:1" fill="#e6e6e6" d="M 83.5,124.5 C 85.0174,124.511 86.1841,125.177 87,126.5C 88.5914,128.927 89.4248,131.593 89.5,134.5C 88.2521,135.334 87.5854,136.667 87.5,138.5C 87.5108,140.045 87.8442,141.378 88.5,142.5C 89.944,147.611 92.2773,152.278 95.5,156.5C 94.2264,158.993 93.5597,161.659 93.5,164.5C 92.8333,164.5 92.1667,164.5 91.5,164.5C 91.2447,161.984 90.4114,159.65 89,157.5C 87.6487,159.019 86.1487,160.352 84.5,161.5C 83.3044,161.154 83.3044,160.654 84.5,160C 81.854,159.503 79.1873,159.336 76.5,159.5C 79.3968,158.664 82.3968,157.664 85.5,156.5C 86.9733,157.071 88.64,157.071 90.5,156.5C 90.5,155.5 90.5,154.5 90.5,153.5C 89.325,153.719 88.325,153.386 87.5,152.5C 88.4279,151.232 88.5946,149.899 88,148.5C 86.1601,150.454 85.3268,152.454 85.5,154.5C 83.4262,152.346 81.2596,150.346 79,148.5C 78.0053,149.066 77.172,149.733 76.5,150.5C 75.8333,150.833 75.1667,151.167 74.5,151.5C 74.0618,151.565 73.7284,151.399 73.5,151C 75.1554,149.556 75.822,147.722 75.5,145.5C 75.3284,144.508 75.6618,143.842 76.5,143.5C 77.2679,144.263 77.7679,145.263 78,146.5C 79,143.833 80,143.833 81,146.5C 81.6541,140.57 79.1541,136.904 73.5,135.5C 74.1667,135.167 74.8333,134.833 75.5,134.5C 76.609,134.443 77.609,134.11 78.5,133.5C 79.643,135.5 81.143,136.167 83,135.5C 83.3333,136.833 83.6667,138.167 84,139.5C 85.973,136.27 85.1396,133.937 81.5,132.5C 81.5,131.5 81.5,130.5 81.5,129.5C 82.9953,129.585 83.9953,128.919 84.5,127.5C 82.7367,127.306 80.9033,127.306 79,127.5C 78.5172,126.552 78.3505,125.552 78.5,124.5C 80.1667,124.5 81.8333,124.5 83.5,124.5 Z"/></g>
<g><path style="opacity:1" fill="#808080" d="M 111.5,137.5 C 110.89,138.391 110.557,139.391 110.5,140.5C 109.167,142.833 109.167,145.167 110.5,147.5C 108.597,149.628 106.931,151.961 105.5,154.5C 106.325,155.386 107.325,155.719 108.5,155.5C 108.5,156.5 108.5,157.5 108.5,158.5C 107.533,157.194 106.199,156.527 104.5,156.5C 104.975,153.918 104.308,151.918 102.5,150.5C 103.279,148.073 104.446,148.073 106,150.5C 109.032,148.06 109.199,145.394 106.5,142.5C 107.876,140.458 109.542,138.791 111.5,137.5 Z"/></g>
<g><path style="opacity:1" fill="#ababab" d="M 14.5,139.5 C 17.4802,140.323 20.1469,141.657 22.5,143.5C 21.2617,143.81 21.2617,144.31 22.5,145C 20.6194,144.904 18.9527,145.071 17.5,145.5C 16.8333,145.5 16.1667,145.5 15.5,145.5C 14.3862,144.115 13.3862,142.615 12.5,141C 13.4158,140.722 14.0825,140.222 14.5,139.5 Z"/></g>
<g><path style="opacity:1" fill="#5d5d5d" d="M 47.5,136.5 C 49.1321,139.133 51.1321,141.467 53.5,143.5C 52.9234,145.55 51.5901,146.55 49.5,146.5C 49.703,148.638 50.703,150.305 52.5,151.5C 51.635,152.583 50.635,152.749 49.5,152C 48.9288,150.795 48.2621,149.628 47.5,148.5C 46.8076,149.025 46.3076,149.692 46,150.5C 46.5379,146.872 46.8712,143.205 47,139.5C 44.4418,139.515 41.9418,139.182 39.5,138.5C 42.3408,138.44 45.0075,137.774 47.5,136.5 Z"/></g>
<g><path style="opacity:1" fill="#ababab" d="M 117.5,139.5 C 117.842,140.338 118.508,140.672 119.5,140.5C 119.67,141.822 119.337,142.989 118.5,144C 116.481,144.45 114.648,145.283 113,146.5C 111.893,145.288 111.393,145.621 111.5,147.5C 111.167,147.5 110.833,147.5 110.5,147.5C 110.433,146.041 110.766,144.708 111.5,143.5C 112.239,143.631 112.906,143.464 113.5,143C 112.304,142.346 112.304,141.846 113.5,141.5C 115.738,144.433 116.738,144.099 116.5,140.5C 116.5,139.833 116.833,139.5 117.5,139.5 Z"/></g>
<g><path style="opacity:1" fill="#dedede" d="M 67.5,141.5 C 68.1667,141.5 68.5,141.833 68.5,142.5C 69.9187,143.451 71.5853,143.784 73.5,143.5C 73.4431,144.609 73.1098,145.609 72.5,146.5C 70.9349,147.238 69.2682,148.238 67.5,149.5C 67.5,149.167 67.5,148.833 67.5,148.5C 66.5829,145.995 66.5829,143.662 67.5,141.5 Z"/></g>
<g><path style="opacity:1" fill="#dedede" d="M 110.5,140.5 C 110.557,141.609 110.89,142.609 111.5,143.5C 110.766,144.708 110.433,146.041 110.5,147.5C 109.167,145.167 109.167,142.833 110.5,140.5 Z"/></g>
<g><path style="opacity:1" fill="#484848" d="M 14.5,139.5 C 14.0825,140.222 13.4158,140.722 12.5,141C 13.3862,142.615 14.3862,144.115 15.5,145.5C 14.3143,146.705 14.3143,148.039 15.5,149.5C 13.4404,148.785 11.7737,147.451 10.5,145.5C 11.0253,144.808 11.6919,144.308 12.5,144C 8.00263,138.644 8.66929,137.144 14.5,139.5 Z"/></g>
<g><path style="opacity:1" fill="#757575" d="M 38.5,142.5 C 40.337,142.639 40.6704,143.306 39.5,144.5C 37.6056,146.781 35.2723,147.948 32.5,148C 34.9962,146.669 36.9962,144.836 38.5,142.5 Z"/></g>
<g><path style="opacity:1" fill="#232323" d="M 76.5,143.5 C 75.6618,143.842 75.3284,144.508 75.5,145.5C 74.2101,146.058 73.3768,147.058 73,148.5C 72.5357,147.906 72.369,147.239 72.5,146.5C 73.1098,145.609 73.4431,144.609 73.5,143.5C 74.6522,142.375 75.6522,142.375 76.5,143.5 Z"/></g>
<g><path style="opacity:1" fill="#909090" d="M 126.5,132.5 C 127.688,133.684 128.855,133.684 130,132.5C 130.717,133.044 131.217,133.711 131.5,134.5C 130.778,134.918 130.278,135.584 130,136.5C 129.667,136.167 129.333,135.833 129,135.5C 129.038,139.332 128.205,142.832 126.5,146C 128.707,148.984 128.207,149.15 125,146.5C 124.536,147.094 124.369,147.761 124.5,148.5C 123.031,145.9 122.031,146.233 121.5,149.5C 119.885,151.374 117.885,152.708 115.5,153.5C 115.077,155.781 115.744,157.448 117.5,158.5C 116.699,160.042 116.366,161.708 116.5,163.5C 116.167,163.5 115.833,163.5 115.5,163.5C 116.056,160.105 114.723,157.938 111.5,157C 113.847,155.809 114.68,153.976 114,151.5C 113,153.167 111.667,154.5 110,155.5C 109.674,152.668 110.174,150.001 111.5,147.5C 113.039,149.982 114.539,149.982 116,147.5C 116.333,147.833 116.667,148.167 117,148.5C 118.659,146.821 120.159,145.155 121.5,143.5C 122.117,143.611 122.617,143.944 123,144.5C 124.899,141.124 125.732,137.457 125.5,133.5C 126.167,133.5 126.5,133.167 126.5,132.5 Z"/></g>
<g><path style="opacity:1" fill="#3d3d3d" d="M 126.5,138.5 C 128.013,141.157 127.513,143.49 125,145.5C 125.572,143.799 126.072,141.466 126.5,138.5 Z"/></g>
<g><path style="opacity:1" fill="#808080" d="M 22.5,143.5 C 23.7095,143.932 24.7095,144.599 25.5,145.5C 24.0484,146.302 22.3817,146.802 20.5,147C 21.5634,148.188 22.8967,148.688 24.5,148.5C 25.2613,149.391 26.2613,150.058 27.5,150.5C 29.0983,149.515 30.765,149.349 32.5,150C 26.1057,153.052 21.1057,151.552 17.5,145.5C 18.9527,145.071 20.6194,144.904 22.5,145C 21.2617,144.31 21.2617,143.81 22.5,143.5 Z"/></g>
<g><path style="opacity:1" fill="#4e4e4e" d="M 29.5,144.5 C 30.552,144.351 31.552,144.517 32.5,145C 32.1667,145.333 31.8333,145.667 31.5,146C 28.8958,146.39 26.5625,147.224 24.5,148.5C 22.8967,148.688 21.5634,148.188 20.5,147C 22.3817,146.802 24.0484,146.302 25.5,145.5C 27.099,145.768 28.4324,145.434 29.5,144.5 Z"/></g>
<g><path style="opacity:1" fill="#585858" d="M 41.5,143.5 C 42.0967,143.735 42.4301,144.235 42.5,145C 42.0216,147.226 41.355,149.392 40.5,151.5C 40.1667,151 39.8333,150.5 39.5,150C 40.2741,147.846 40.9408,145.679 41.5,143.5 Z"/></g>
<g><path style="opacity:1" fill="#757575" d="M 60.5,135.5 C 61.2679,136.263 61.7679,137.263 62,138.5C 63.7789,136.07 65.9456,135.403 68.5,136.5C 67.962,138.117 67.6287,139.784 67.5,141.5C 66.5829,143.662 66.5829,145.995 67.5,148.5C 66.2334,149.087 65.2334,149.087 64.5,148.5C 65.3928,145.916 65.7261,143.249 65.5,140.5C 63.8333,140.5 62.1667,140.5 60.5,140.5C 59.9035,138.602 59.9035,136.935 60.5,135.5 Z"/></g>
<g><path style="opacity:1" fill="#4f4f4f" d="M 95.5,141.5 C 96.29,142.609 96.79,143.942 97,145.5C 98.3425,144.098 99.1758,144.431 99.5,146.5C 98.2043,148.978 96.2043,150.145 93.5,150C 95.524,148.542 95.6907,146.709 94,144.5C 93.3457,145.696 92.8457,145.696 92.5,144.5C 93.3398,143.265 94.3398,142.265 95.5,141.5 Z"/></g>
<g><path style="opacity:1" fill="#e5e5e5" d="M 126.5,132.5 C 126.5,133.167 126.167,133.5 125.5,133.5C 125.217,132.711 124.717,132.044 124,131.5C 123.667,132.833 123.333,134.167 123,135.5C 122.667,135.167 122.333,134.833 122,134.5C 121.502,137.482 121.335,140.482 121.5,143.5C 120.159,145.155 118.659,146.821 117,148.5C 116.667,148.167 116.333,147.833 116,147.5C 114.539,149.982 113.039,149.982 111.5,147.5C 111.393,145.621 111.893,145.288 113,146.5C 114.648,145.283 116.481,144.45 118.5,144C 119.337,142.989 119.67,141.822 119.5,140.5C 119.838,137.989 119.838,135.655 119.5,133.5C 120.025,132.808 120.692,132.308 121.5,132C 121.167,131.667 120.833,131.333 120.5,131C 122.989,130.059 124.989,130.559 126.5,132.5 Z"/></g>
<g><path style="opacity:1" fill="#a4a4a4" d="M 83.5,141.5 C 85.4595,143.421 86.2928,145.755 86,148.5C 85.6667,147.833 85.3333,147.167 85,146.5C 84.7508,147.624 84.2508,148.624 83.5,149.5C 82.3855,146.844 82.3855,144.177 83.5,141.5 Z"/></g>
<g><path style="opacity:1" fill="#3a3a3a" d="M 124.5,148.5 C 124.5,149.167 124.5,149.833 124.5,150.5C 124.167,150.5 123.833,150.5 123.5,150.5C 122.833,150.167 122.167,149.833 121.5,149.5C 122.031,146.233 123.031,145.9 124.5,148.5 Z"/></g>
<g><path style="opacity:1" fill="#8c8c8c" d="M 75.5,145.5 C 75.822,147.722 75.1554,149.556 73.5,151C 73.7284,151.399 74.0618,151.565 74.5,151.5C 73.1879,153.479 71.5212,155.145 69.5,156.5C 67.9095,152.505 65.5761,151.839 62.5,154.5C 61.3044,154.154 61.3044,153.654 62.5,153C 64.3231,152.003 65.9897,150.836 67.5,149.5C 69.2682,148.238 70.9349,147.238 72.5,146.5C 72.369,147.239 72.5357,147.906 73,148.5C 73.3768,147.058 74.2101,146.058 75.5,145.5 Z"/></g>
<g><path style="opacity:1" fill="#e2e2e2" d="M 121.5,149.5 C 122.167,149.833 122.833,150.167 123.5,150.5C 123.67,151.822 123.337,152.989 122.5,154C 124.586,155.827 126.586,155.827 128.5,154C 127.619,153.292 126.953,152.458 126.5,151.5C 126.369,150.761 126.536,150.094 127,149.5C 128.409,150.781 129.909,151.781 131.5,152.5C 130.761,152.369 130.094,152.536 129.5,153C 130.103,155.071 131.436,156.238 133.5,156.5C 134.117,158.229 135.117,159.729 136.5,161C 135.181,161.195 133.847,161.028 132.5,160.5C 128.465,156.53 127.799,157.197 130.5,162.5C 130.5,162.833 130.5,163.167 130.5,163.5C 130.158,164.338 129.492,164.672 128.5,164.5C 128.5,164.167 128.5,163.833 128.5,163.5C 128.938,163.565 129.272,163.399 129.5,163C 128.756,161.961 127.756,161.461 126.5,161.5C 124.733,160.35 123.567,161.017 123,163.5C 122.722,162.584 122.222,161.918 121.5,161.5C 121.833,160.833 122.167,160.167 122.5,159.5C 123.376,159.631 124.043,159.298 124.5,158.5C 122.083,157.928 119.916,156.928 118,155.5C 117.536,156.094 117.369,156.761 117.5,157.5C 117.5,157.833 117.5,158.167 117.5,158.5C 115.744,157.448 115.077,155.781 115.5,153.5C 117.885,152.708 119.885,151.374 121.5,149.5 Z"/></g>
<g><path style="opacity:1" fill="#6b6b6b" d="M 15.5,149.5 C 17.1958,149.685 18.5291,150.519 19.5,152C 18.9056,152.464 18.2389,152.631 17.5,152.5C 16.4489,151.778 15.7822,150.778 15.5,149.5 Z"/></g>
<g><path style="opacity:1" fill="#222222" d="M 110.5,147.5 C 110.833,147.5 111.167,147.5 111.5,147.5C 110.174,150.001 109.674,152.668 110,155.5C 111.667,154.5 113,153.167 114,151.5C 114.68,153.976 113.847,155.809 111.5,157C 114.723,157.938 116.056,160.105 115.5,163.5C 112.4,162.788 110.566,160.788 110,157.5C 109.617,158.056 109.117,158.389 108.5,158.5C 108.5,157.5 108.5,156.5 108.5,155.5C 107.325,155.719 106.325,155.386 105.5,154.5C 106.931,151.961 108.597,149.628 110.5,147.5 Z"/></g>
<g><path style="opacity:1" fill="#8a8a8a" d="M 102.5,150.5 C 102.5,151.5 102.5,152.5 102.5,153.5C 101.167,153.5 99.8333,153.5 98.5,153.5C 98.7373,154.791 98.404,155.791 97.5,156.5C 97.4977,154.169 98.331,152.169 100,150.5C 100.333,151.167 100.667,151.833 101,152.5C 101.278,151.584 101.778,150.918 102.5,150.5 Z"/></g>
<g><path style="opacity:1" fill="#a6a6a6" d="M 85.5,156.5 C 84.6868,155.347 83.6868,155.347 82.5,156.5C 81.8333,155.833 81.1667,155.167 80.5,154.5C 79.549,155.326 78.549,155.492 77.5,155C 79.6856,153.294 79.3522,151.794 76.5,150.5C 77.172,149.733 78.0053,149.066 79,148.5C 81.2596,150.346 83.4262,152.346 85.5,154.5C 85.3268,152.454 86.1601,150.454 88,148.5C 88.5946,149.899 88.4279,151.232 87.5,152.5C 88.325,153.386 89.325,153.719 90.5,153.5C 90.5,154.5 90.5,155.5 90.5,156.5C 88.64,157.071 86.9733,157.071 85.5,156.5 Z"/></g>
<g><path style="opacity:1" fill="#848484" d="M 123.5,150.5 C 123.833,150.5 124.167,150.5 124.5,150.5C 125.167,150.833 125.833,151.167 126.5,151.5C 126.953,152.458 127.619,153.292 128.5,154C 126.586,155.827 124.586,155.827 122.5,154C 123.337,152.989 123.67,151.822 123.5,150.5 Z"/></g>
<g><path style="opacity:1" fill="#878787" d="M 131.5,152.5 C 132.779,153.968 134.446,154.635 136.5,154.5C 136.5,155.5 136.5,156.5 136.5,157.5C 135.609,156.89 134.609,156.557 133.5,156.5C 131.436,156.238 130.103,155.071 129.5,153C 130.094,152.536 130.761,152.369 131.5,152.5 Z"/></g>
<g><path style="opacity:1" fill="#a8a8a8" d="M 23.5,156.5 C 26.3273,155.632 29.3273,155.632 32.5,156.5C 32.5,156.833 32.5,157.167 32.5,157.5C 29.4824,157.296 26.4824,156.963 23.5,156.5 Z"/></g>
<g><path style="opacity:1" fill="#aeaeae" d="M 39.5,155.5 C 43.1021,155.678 43.1021,156.678 39.5,158.5C 36.9548,157.451 36.9548,156.451 39.5,155.5 Z"/></g>
<g><path style="opacity:1" fill="#666666" d="M 46.5,155.5 C 48.1992,155.34 49.8659,155.506 51.5,156C 48.6922,156.598 46.1922,157.765 44,159.5C 43.3333,158.833 43.3333,158.167 44,157.5C 44.9947,156.934 45.828,156.267 46.5,155.5 Z"/></g>
<g><path style="opacity:1" fill="#525252" d="M 50.5,159.5 C 52.2646,158.539 54.2646,158.205 56.5,158.5C 56.6287,160.216 56.962,161.883 57.5,163.5C 57.3893,164.117 57.056,164.617 56.5,165C 54.1902,165.497 51.8568,165.663 49.5,165.5C 50.5,164.833 51.5,164.167 52.5,163.5C 57.1203,160.127 56.4536,158.793 50.5,159.5 Z"/></g>
<g><path style="opacity:1" fill="#7f7f7f" d="M 95.5,156.5 C 96.1667,156.833 96.8333,157.167 97.5,157.5C 98.8322,159.138 100.166,160.804 101.5,162.5C 100.788,163.739 99.788,164.239 98.5,164C 98.9694,162.038 98.3027,160.205 96.5,158.5C 96.2523,161.282 95.7523,164.282 95,167.5C 94.4867,166.473 93.9867,165.473 93.5,164.5C 93.5597,161.659 94.2264,158.993 95.5,156.5 Z"/></g>
<g><path style="opacity:1" fill="#161616" d="M 117.5,157.5 C 119.306,158.024 120.972,158.691 122.5,159.5C 122.167,160.167 121.833,160.833 121.5,161.5C 121.5,162.5 121.5,163.5 121.5,164.5C 120.178,164.33 119.011,164.663 118,165.5C 117.283,164.956 116.783,164.289 116.5,163.5C 116.366,161.708 116.699,160.042 117.5,158.5C 117.5,158.167 117.5,157.833 117.5,157.5 Z"/></g>
<g><path style="opacity:1" fill="#777777" d="M 122.5,159.5 C 120.972,158.691 119.306,158.024 117.5,157.5C 117.369,156.761 117.536,156.094 118,155.5C 119.916,156.928 122.083,157.928 124.5,158.5C 124.043,159.298 123.376,159.631 122.5,159.5 Z"/></g>
<g><path style="opacity:1" fill="#cccccc" d="M 50.5,159.5 C 56.4536,158.793 57.1203,160.127 52.5,163.5C 52.6309,162.624 52.2975,161.957 51.5,161.5C 50.7836,162.311 49.9503,162.978 49,163.5C 46.4798,163.402 43.9798,163.402 41.5,163.5C 39.1236,162.421 38.957,161.088 41,159.5C 44.4337,160.47 47.6004,160.47 50.5,159.5 Z"/></g>
<g><path style="opacity:1" fill="#7f7f7f" d="M 65.5,159.5 C 64.1037,161.373 62.437,161.706 60.5,160.5C 61.7476,158.31 63.4143,157.977 65.5,159.5 Z"/></g>
<g><path style="opacity:1" fill="#202020" d="M 132.5,160.5 C 132.5,161.833 131.833,162.5 130.5,162.5C 127.799,157.197 128.465,156.53 132.5,160.5 Z"/></g>
<g><path style="opacity:1" fill="#5c5c5c" d="M 32.5,156.5 C 34.0672,157.681 34.9005,159.347 35,161.5C 36.6516,162.399 38.1516,163.399 39.5,164.5C 36.9837,164.245 34.6504,163.411 32.5,162C 33.7279,160.51 33.7279,159.01 32.5,157.5C 32.5,157.167 32.5,156.833 32.5,156.5 Z"/></g>
<g><path style="opacity:1" fill="#777777" d="M 71.5,160.5 C 71.56,159.957 71.8933,159.624 72.5,159.5C 73.5237,160.853 74.857,161.52 76.5,161.5C 76.5,162.167 76.1667,162.5 75.5,162.5C 74.1266,162.657 72.7932,162.49 71.5,162C 72.7383,161.31 72.7383,160.81 71.5,160.5 Z"/></g>
<g><path style="opacity:1" fill="#4a4a4a" d="M 133.5,156.5 C 134.609,156.557 135.609,156.89 136.5,157.5C 137.942,158.82 138.608,160.486 138.5,162.5C 135.873,163.092 133.206,163.425 130.5,163.5C 130.5,163.167 130.5,162.833 130.5,162.5C 131.833,162.5 132.5,161.833 132.5,160.5C 133.847,161.028 135.181,161.195 136.5,161C 135.117,159.729 134.117,158.229 133.5,156.5 Z"/></g>
<g><path style="opacity:1" fill="#2c2c2c" d="M 101.5,162.5 C 101.771,164.38 101.104,165.713 99.5,166.5C 99.44,165.957 99.1067,165.624 98.5,165.5C 97.6114,167.007 96.6114,168.34 95.5,169.5C 94.5,169.5 93.5,169.5 92.5,169.5C 93.5624,168.425 93.5624,167.425 92.5,166.5C 91.6143,167.325 91.281,168.325 91.5,169.5C 90.5,169.5 89.5,169.5 88.5,169.5C 88.687,167.436 89.187,165.436 90,163.5C 90.3826,164.056 90.8826,164.389 91.5,164.5C 92.1667,164.5 92.8333,164.5 93.5,164.5C 93.9867,165.473 94.4867,166.473 95,167.5C 95.7523,164.282 96.2523,161.282 96.5,158.5C 98.3027,160.205 98.9694,162.038 98.5,164C 99.788,164.239 100.788,163.739 101.5,162.5 Z"/></g>
<g><path style="opacity:1" fill="#141414" d="M 126.5,161.5 C 127.756,161.461 128.756,161.961 129.5,163C 129.272,163.399 128.938,163.565 128.5,163.5C 127.127,163.657 125.793,163.49 124.5,163C 125.044,162.283 125.711,161.783 126.5,161.5 Z"/></g>
<g><path style="opacity:1" fill="#1e1e1e" d="M 76.5,161.5 C 77.8333,161.5 79.1667,161.5 80.5,161.5C 81.204,163.678 81.5374,165.678 81.5,167.5C 81.8333,167.833 82.1667,168.167 82.5,168.5C 82.9976,167.397 83.3309,166.397 83.5,165.5C 85.7035,166.472 87.0368,168.139 87.5,170.5C 84.0658,169.932 80.7325,169.766 77.5,170C 77.8333,169.667 78.1667,169.333 78.5,169C 73.1667,167.667 73.1667,166.333 78.5,165C 77.451,164.508 76.451,164.674 75.5,165.5C 74.4376,164.575 74.4376,163.575 75.5,162.5C 76.1667,162.5 76.5,162.167 76.5,161.5 Z"/></g>
<g><path style="opacity:1" fill="#868686" d="M 91.5,164.5 C 90.8826,164.389 90.3826,164.056 90,163.5C 89.187,165.436 88.687,167.436 88.5,169.5C 89.5,169.5 90.5,169.5 91.5,169.5C 91.281,168.325 91.6143,167.325 92.5,166.5C 93.5624,167.425 93.5624,168.425 92.5,169.5C 91.0813,170.451 89.4147,170.784 87.5,170.5C 87.0368,168.139 85.7035,166.472 83.5,165.5C 83.3309,166.397 82.9976,167.397 82.5,168.5C 82.1667,168.167 81.8333,167.833 81.5,167.5C 81.5374,165.678 81.204,163.678 80.5,161.5C 79.1667,161.5 77.8333,161.5 76.5,161.5C 76.5,160.833 76.5,160.167 76.5,159.5C 79.1873,159.336 81.854,159.503 84.5,160C 83.3044,160.654 83.3044,161.154 84.5,161.5C 86.1487,160.352 87.6487,159.019 89,157.5C 90.4114,159.65 91.2447,161.984 91.5,164.5 Z"/></g>
<g><path style="opacity:1" fill="#797979" d="M 126.5,161.5 C 125.711,161.783 125.044,162.283 124.5,163C 125.793,163.49 127.127,163.657 128.5,163.5C 128.5,163.833 128.5,164.167 128.5,164.5C 126.167,164.5 123.833,164.5 121.5,164.5C 121.5,163.5 121.5,162.5 121.5,161.5C 122.222,161.918 122.722,162.584 123,163.5C 123.567,161.017 124.733,160.35 126.5,161.5 Z"/></g>
<g><path style="opacity:1" fill="#919191" d="M 99.5,166.5 C 99.3059,168.912 97.9726,169.912 95.5,169.5C 96.6114,168.34 97.6114,167.007 98.5,165.5C 99.1067,165.624 99.44,165.957 99.5,166.5 Z"/></g>
</svg>
